<?xml version="1.0" encoding="UTF-8" standalone="no"?>
<svg width="275px" height="176px" viewBox="0 0 275 176" version="1.1" xmlns="http://www.w3.org/2000/svg" xmlns:xlink="http://www.w3.org/1999/xlink" xmlns:sketch="http://www.bohemiancoding.com/sketch/ns">
    <!-- Generator: Sketch 3.4.4 (17249) - http://www.bohemiancoding.com/sketch -->
    <title>booker</title>
    <desc>Created with Sketch.</desc>
    <defs></defs>
    <g id="Components" stroke="none" stroke-width="1" fill="none" fill-rule="evenodd" sketch:type="MSPage">
        <g id="booker" sketch:type="MSLayerGroup" transform="translate(-1.000000, -1.972656)">
            <g id="Group" sketch:type="MSShapeGroup">
                <path d="M193.57377,139.868852 C193.57377,131.016393 186.786885,126.885246 178.229508,126.885246 L131.311475,126.885246 L111.540984,72.5901639 L111.540984,72.5901639 C108.590164,63.147541 99.7377049,56.0655738 89.1147541,56.0655738 C85.2786885,56.0655738 81.7377049,56.9508197 78.4918033,58.7213115 L78.4918033,58.7213115 C35.704918,80.2622951 10.9180328,119.803279 1.47540984,177.934426 L57.5409836,177.934426 C59.0163934,153.442623 63.442623,124.819672 83.5081967,107.704918 L106.52459,142.229508 L106.52459,142.229508 C109.180328,147.245902 114.491803,151.081967 120.393443,151.081967 L178.229508,151.081967 C187.081967,151.081967 193.57377,148.721311 193.57377,139.868852 L193.57377,139.868852 Z" id="Shape" fill="#000000"></path>
                <path d="M207.147541,166.131148 C205.967213,163.770492 200.360656,154.327869 188.852459,154.327869 C175.868852,154.327869 170.557377,166.42623 170.262295,166.721311 C169.967213,167.606557 169.967213,168.786885 170.557377,169.377049 C171.147541,170.262295 172.032787,170.852459 172.918033,170.852459 L204.491803,170.852459 L204.491803,170.852459 C206.262295,170.852459 207.442623,169.672131 207.442623,167.901639 C207.737705,167.311475 207.737705,166.42623 207.147541,166.131148 L207.147541,166.131148 Z" id="Shape" fill="#000000"></path>
                <path d="M269.114754,25.0819672 C263.803279,22.7213115 257.901639,25.3770492 255.540984,30.6885246 L210.983607,135.147541 C208.622951,140.459016 211.278689,146.360656 216.590164,148.721311 C217.770492,149.311475 219.245902,149.606557 220.721311,149.606557 C224.852459,149.606557 228.688525,147.245902 230.163934,143.409836 L238.131148,124.52459 L253.180328,155.803279 L232.229508,155.803279 C228.098361,155.803279 224.852459,159.04918 224.852459,163.180328 C224.852459,167.311475 228.098361,170.557377 232.229508,170.557377 L264.983607,170.557377 C267.639344,170.557377 270,169.377049 271.180328,167.016393 C272.655738,164.95082 272.655738,162.295082 271.47541,159.934426 L246.098361,106.229508 L274.721311,38.6557377 C277.081967,33.3442623 274.42623,27.442623 269.114754,25.0819672 L269.114754,25.0819672 Z" id="Shape" fill="#000000"></path>
                <path d="M129.836066,2.36065574 C122.459016,2.36065574 115.672131,5.01639344 110.655738,9.44262295 C108,5.01639344 103.278689,2.36065574 97.6721311,2.36065574 C89.1147541,2.36065574 82.3278689,9.14754098 82.3278689,17.704918 C82.3278689,26.2622951 89.1147541,33.0491803 97.6721311,33.0491803 C98.557377,33.0491803 99.442623,33.0491803 100.327869,32.7540984 C100.918033,48.6885246 113.901639,61.0819672 129.836066,61.0819672 C146.065574,61.0819672 159.344262,47.8032787 159.344262,31.5737705 C159.344262,15.3442623 146.065574,2.36065574 129.836066,2.36065574 L129.836066,2.36065574 Z" id="Shape" fill="#231F20"></path>
            </g>
        </g>
    </g>
</svg>