<?xml version="1.0" encoding="UTF-8" standalone="no"?>
<svg width="240px" height="178px" viewBox="0 0 240 178" version="1.1" xmlns="http://www.w3.org/2000/svg" xmlns:xlink="http://www.w3.org/1999/xlink" xmlns:sketch="http://www.bohemiancoding.com/sketch/ns">
    <!-- Generator: Sketch 3.4.4 (17249) - http://www.bohemiancoding.com/sketch -->
    <title>managers</title>
    <desc>Created with Sketch.</desc>
    <defs></defs>
    <g id="Components" stroke="none" stroke-width="1" fill="none" fill-rule="evenodd" sketch:type="MSPage">
        <g id="managers" sketch:type="MSLayerGroup" transform="translate(0.247049, -0.972656)">
            <g id="Group" transform="translate(81.818182, 0.000000)" fill="#000000" sketch:type="MSShapeGroup">
                <path d="M34.2572727,55.3090909 C33.0818182,56.5418182 31.6554545,58.3363636 29.9945455,60.96 C29.9754545,60.9927273 29.9563636,61.02 29.9372727,61.0527273 C29.9372727,61.0527273 27.4227273,49.7481818 26.8390909,44.1054545 C26.7627273,44.22 26.6836364,44.3345455 26.5963636,44.4463636 C26.1272727,45.0463636 25.5136364,45.6272727 24.6981818,46.1427273 L12.4336364,51.4772727 C8.59636364,52.9527273 6.97090909,55.1672727 6.97090909,55.1672727 C1.29,63.5809091 0.624545455,71.9863636 0.624545455,71.9863636 C0.698181818,76.2654545 2.54454545,76.7072727 2.54454545,76.7072727 C11.6509091,80.7709091 25.3390909,82.5027273 32.8036364,83.1818182 C32.9836364,73.9472727 35.5690909,60.9327273 35.8936364,59.3290909 C35.0727273,58.0527273 34.5354545,56.3590909 34.2572727,55.3090909 L34.2572727,55.3090909 Z" id="Shape"></path>
                <path d="M69.3954545,55.17 C69.3954545,55.17 67.7754545,52.9554545 63.9354545,51.48 C63.9354545,51.48 56.3645455,49.1781818 52.3281818,46.5872727 C52.0145455,46.3827273 51.7118182,46.1754545 51.4445455,45.9681818 C51.3272727,45.8318182 50.9590909,45.5727273 50.8363636,45.4363636 C50.4381818,45.1527273 50.2336364,44.8827273 49.8518182,44.3809091 C49.2545455,50.1190909 46.9527273,61.1018182 46.9527273,61.1018182 C45.3627273,58.4781818 43.9418182,56.67 42.7309091,55.4154545 C42.1772727,57.3518182 41.5772727,58.6418182 41.0045455,59.4927273 C42.8918182,66.1827273 43.7672727,81.5781818 43.8490909,83.1572727 C51.3736364,82.4618182 64.8327273,80.7218182 73.8190909,76.71 C73.8190909,76.71 75.6681818,76.2681818 75.7363636,71.9890909 C75.7445455,71.9890909 75.0790909,63.5809091 69.3954545,55.17 L69.3954545,55.17 Z" id="Shape"></path>
                <path d="M49.3254545,39.3163636 C50.7627273,37.41 51.9381818,35.2581818 52.7263636,33.0681818 C54.1472727,31.65 54.8754545,28.1972727 54.8754545,28.1972727 C55.8190909,25.5518182 55.5409091,24.2018182 55.1072727,23.5227273 C55.2409091,23.1218182 57.5072727,16.1154545 54.3081818,10.7127273 C54.3081818,10.7127273 53.1709091,5.60181818 47.1545455,3.33272727 C41.5909091,-0.0709090909 33.3027273,1.96909091 33.3027273,1.96909091 C23.1981818,3.67363636 21.0354545,15.5590909 21.0354545,15.5590909 C20.43,20.9836364 21.8863636,24.3790909 21.9463636,24.5181818 C21.4309091,25.8054545 22.3663636,29.1627273 22.3663636,29.1627273 C22.6881818,31.2136364 23.6945455,31.8381818 23.9863636,31.98 C24.7718182,34.8245455 26.1981818,37.5872727 27.9818182,39.9054545 C28.0063636,40.3036364 28.0009091,40.8818182 27.8754545,41.5554545 C28.7809091,44.5363636 31.1427273,49.9663636 36.7036364,52.1318182 C37.1754545,52.3145455 37.6690909,52.4809091 38.1872727,52.6118182 C38.7790909,52.4454545 39.3436364,52.2436364 39.8781818,52.0090909 C45.1309091,49.7290909 47.5990909,44.5145455 48.6354545,41.4272727 C48.5781818,41.0727273 48.5509091,40.6936364 48.5454545,40.2927273 C48.7663636,40.0281818 48.9845455,39.7609091 49.1918182,39.4854545" id="Shape"></path>
            </g>
            <g id="Group" transform="translate(79.090909, 90.000000)" sketch:type="MSShapeGroup">
                <path id="Shape" d="M40.9090909,43.8981818 L40.9063636,43.8981818 L40.9090909,43.9009091 L40.9090909,43.8981818 Z"></path>
                <path d="M81.7609091,56.9290909 L46.3636364,40.4209091 L46.3636364,1.36636364 L35.4545455,1.36636364 L35.4545455,40.4209091 L0.06,56.9290909 L4.66909091,66.8154545 L40.9090909,49.9172727 L77.1436364,66.81 L81.7609091,56.9290909 L81.7609091,56.9290909 Z" id="Shape" fill="#000000"></path>
            </g>
            <g id="Group" transform="translate(0.000000, 95.454545)" fill="#000000" sketch:type="MSShapeGroup">
                <path d="M34.2572727,55.3090909 C33.0818182,56.5418182 31.6554545,58.3363636 29.9945455,60.96 C29.9754545,60.9927273 29.9563636,61.0172727 29.9372727,61.0527273 C29.9372727,61.0527273 27.4227273,49.7454545 26.8390909,44.1054545 C26.7627273,44.2172727 26.6836364,44.3345455 26.5963636,44.4463636 C26.1272727,45.0463636 25.5136364,45.6272727 24.6981818,46.14 L12.4336364,51.4772727 C8.59636364,52.9527273 6.97090909,55.1672727 6.97090909,55.1672727 C1.29,63.5809091 0.624545455,71.9863636 0.624545455,71.9863636 C0.698181818,76.2627273 2.54454545,76.7045455 2.54454545,76.7045455 C11.6509091,80.7681818 25.3390909,82.5 32.8036364,83.1818182 C32.9836364,73.9445455 35.5690909,60.9327273 35.8936364,59.3290909 C35.0727273,58.0527273 34.5354545,56.3590909 34.2572727,55.3090909 L34.2572727,55.3090909 Z" id="Shape"></path>
                <path d="M69.3981818,55.17 C69.3981818,55.17 67.7754545,52.9554545 63.9354545,51.48 C63.9354545,51.48 56.3645455,49.1754545 52.3309091,46.5845455 C52.0145455,46.3827273 51.7145455,46.1754545 51.4472727,45.9654545 C51.3272727,45.8290909 50.9590909,45.57 50.8390909,45.4336364 C50.4381818,45.15 50.2363636,44.88 49.8545455,44.3781818 C49.2572727,50.1163636 46.9554545,61.0990909 46.9554545,61.0990909 C45.3654545,58.4754545 43.9445455,56.6672727 42.7336364,55.4127273 C42.18,57.3490909 41.58,58.6390909 41.0072727,59.49 C42.8945455,66.18 43.77,81.5754545 43.8518182,83.1545455 C51.3763636,82.4590909 64.8354545,80.7190909 73.8245455,76.7072727 C73.8245455,76.7072727 75.6709091,76.2654545 75.7418182,71.9890909 C75.7445455,71.9890909 75.0818182,63.5809091 69.3981818,55.17 L69.3981818,55.17 Z" id="Shape"></path>
                <path d="M49.3254545,39.3190909 C50.7627273,37.4127273 51.9381818,35.2609091 52.7263636,33.0709091 C54.1472727,31.65 54.8754545,28.1972727 54.8754545,28.1972727 C55.8190909,25.5490909 55.5409091,24.2018182 55.1072727,23.52 C55.2409091,23.1218182 57.5072727,16.11 54.3081818,10.7127273 C54.3081818,10.7127273 53.1709091,5.60454545 47.1545455,3.33545455 C41.5909091,-0.0681818182 33.3027273,1.97181818 33.3027273,1.97181818 C23.1981818,3.67636364 21.0354545,15.5563636 21.0354545,15.5563636 C20.43,20.9836364 21.8863636,24.3763636 21.9463636,24.5154545 C21.4309091,25.8054545 22.3663636,29.16 22.3663636,29.16 C22.6881818,31.2136364 23.6945455,31.8381818 23.9863636,31.98 C24.7718182,34.8245455 26.1981818,37.5927273 27.9818182,39.9027273 C28.0063636,40.3009091 28.0009091,40.8818182 27.8754545,41.5527273 C28.7809091,44.5363636 31.1427273,49.9636364 36.7036364,52.1290909 C37.1754545,52.3118182 37.6690909,52.4781818 38.1872727,52.6118182 C38.7790909,52.4427273 39.3436364,52.2409091 39.8781818,52.0063636 C45.1309091,49.7263636 47.5990909,44.5118182 48.6354545,41.4245455 C48.5809091,41.0727273 48.5509091,40.6936364 48.5454545,40.29 C48.7663636,40.0281818 48.9845455,39.7581818 49.1918182,39.4854545" id="Shape"></path>
            </g>
            <g id="Group" transform="translate(163.636364, 95.454545)" fill="#000000" sketch:type="MSShapeGroup">
                <path d="M34.2572727,55.3090909 C33.0818182,56.5418182 31.6581818,58.3363636 29.9945455,60.96 C29.9754545,60.9927273 29.9563636,61.0172727 29.9372727,61.0527273 C29.9372727,61.0527273 27.4227273,49.7454545 26.8390909,44.1054545 C26.7627273,44.2172727 26.6836364,44.3345455 26.5963636,44.4463636 C26.1272727,45.0463636 25.5163636,45.6272727 24.7009091,46.14 L12.4336364,51.4772727 C8.59909091,52.9527273 6.97363636,55.1672727 6.97363636,55.1672727 C1.29,63.5809091 0.624545455,71.9863636 0.624545455,71.9863636 C0.698181818,76.2627273 2.54727273,76.7045455 2.54727273,76.7045455 C11.6509091,80.7681818 25.3390909,82.5 32.8036364,83.1818182 C32.9836364,73.9445455 35.5718182,60.9327273 35.8963636,59.3290909 C35.07,58.0527273 34.5354545,56.3590909 34.2572727,55.3090909 L34.2572727,55.3090909 Z" id="Shape"></path>
                <path d="M69.3954545,55.17 C69.3954545,55.17 67.7754545,52.9554545 63.9354545,51.48 C63.9354545,51.48 56.3645455,49.1754545 52.3281818,46.5845455 C52.0145455,46.3827273 51.7118182,46.1754545 51.4445455,45.9654545 C51.3272727,45.8290909 50.9590909,45.57 50.8363636,45.4336364 C50.4381818,45.15 50.2336364,44.88 49.8518182,44.3781818 C49.2545455,50.1163636 46.9527273,61.0990909 46.9527273,61.0990909 C45.3627273,58.4754545 43.9418182,56.6672727 42.7309091,55.4127273 C42.1772727,57.3490909 41.5772727,58.6390909 41.0045455,59.49 C42.8918182,66.18 43.7672727,81.5754545 43.8490909,83.1545455 C51.3736364,82.4590909 64.8327273,80.7190909 73.8190909,76.7072727 C73.8190909,76.7072727 75.6681818,76.2654545 75.7363636,71.9890909 C75.7445455,71.9890909 75.0790909,63.5809091 69.3954545,55.17 L69.3954545,55.17 Z" id="Shape"></path>
                <path d="M49.3254545,39.3190909 C50.7627273,37.4127273 51.9381818,35.2609091 52.7263636,33.0709091 C54.1472727,31.65 54.8754545,28.1972727 54.8754545,28.1972727 C55.8190909,25.5490909 55.5409091,24.2018182 55.1072727,23.52 C55.2409091,23.1218182 57.5072727,16.11 54.3081818,10.7127273 C54.3081818,10.7127273 53.1709091,5.60454545 47.1545455,3.33545455 C41.5909091,-0.0681818182 33.3027273,1.97181818 33.3027273,1.97181818 C23.1981818,3.67636364 21.0354545,15.5563636 21.0354545,15.5563636 C20.43,20.9836364 21.8890909,24.3763636 21.9463636,24.5154545 C21.4309091,25.8054545 22.3663636,29.16 22.3663636,29.16 C22.6854545,31.2136364 23.6918182,31.8381818 23.9863636,31.98 C24.7718182,34.8245455 26.1981818,37.5927273 27.9818182,39.9027273 C28.0090909,40.3009091 28.0036364,40.8818182 27.8754545,41.5527273 C28.7809091,44.5363636 31.1427273,49.9636364 36.7036364,52.1290909 C37.1754545,52.3118182 37.6690909,52.4781818 38.1872727,52.6118182 C38.7790909,52.4427273 39.3436364,52.2409091 39.8781818,52.0063636 C45.1309091,49.7263636 47.5990909,44.5118182 48.6354545,41.4245455 C48.5781818,41.0727273 48.5509091,40.6936364 48.5454545,40.29 C48.7663636,40.0281818 48.9845455,39.7581818 49.1918182,39.4854545" id="Shape"></path>
            </g>
        </g>
    </g>
</svg>