<?xml version="1.0" encoding="UTF-8" standalone="no"?>
<svg width="182px" height="180px" viewBox="0 0 182 180" version="1.1" xmlns="http://www.w3.org/2000/svg" xmlns:xlink="http://www.w3.org/1999/xlink" xmlns:sketch="http://www.bohemiancoding.com/sketch/ns">
    <!-- Generator: Sketch 3.4.4 (17249) - http://www.bohemiancoding.com/sketch -->
    <title>traveler</title>
    <desc>Created with Sketch.</desc>
    <defs></defs>
    <g id="Components" stroke="none" stroke-width="1" fill="none" fill-rule="evenodd" sketch:type="MSPage">
        <g id="traveler" sketch:type="MSLayerGroup" transform="translate(0.227325, 0.027344)" fill="#000000">
            <g id="Group" sketch:type="MSShapeGroup">
                <path d="M133.763636,29.6981818 C141.981818,30.38 149.114545,24.2672727 149.792727,16.06 C150.418182,7.85090909 144.303636,0.721818182 136.083636,0.0436363636 C127.932727,-0.581818182 120.745455,5.53090909 120.125455,13.7381818 C119.443636,21.8927273 125.556364,29.0781818 133.763636,29.6981818 L133.763636,29.6981818 Z" id="Shape"></path>
                <path d="M120.074545,33.88 C123.823636,31.6054545 127.650909,32.4181818 131.610909,32.76 C136.705455,33.1563636 140.909091,36.3218182 143.458182,40.1763636 L158.454545,69.9454545 L178.943636,84.04 C180.698182,85.3981818 181.774545,87.5490909 181.547273,89.9254545 C181.267273,93.6054545 178.036364,96.3781818 174.361818,96.0381818 C173.229091,95.9818182 172.323636,95.5272727 171.303636,95.0745455 L148.945455,79.68 C148.267273,79.1145455 147.698182,78.4363636 147.249091,77.7018182 L141.645455,66.5527273 L134.894545,96.2072727 L161.285455,127.394545 C161.907273,128.354545 162.305455,129.485455 162.532727,130.616364 L169.661818,168.256364 C169.607273,169.105455 169.716364,169.618182 169.661818,170.294545 C169.265455,175.896364 164.398182,179.972727 158.852727,179.576364 C154.269091,179.18 150.867273,175.785455 149.796364,171.592727 L143.061818,136.330909 L121.596364,112.84 L116.616364,135.709091 C116.447273,136.778182 115.032727,139.047273 114.636364,139.952727 L94.0363636,174.645455 C92,177.812727 88.5436364,179.850909 84.6381818,179.512727 C79.0345455,179.118182 74.9054545,174.250909 75.3563636,168.703636 C75.4709091,167.118182 76.1509091,165.48 76.7181818,164.347273 L95.8436364,132.254545 L112.810909,63.3109091 L102.921818,75.7745455 L86.9945455,96.0581818 C84.9327273,98.6472727 81.1236364,99.7654545 78.1363636,98.0127273 C74.8927273,96.1381818 73.8436364,92.0490909 75.7254545,88.8072727 C75.8436364,88.5545455 76.0145455,88.3254545 76.2181818,88.0418182 L94.88,64.4236364 C95.6236364,63.64 111.254545,43.9745455 116.587273,37.2581818 C117.690909,35.8690909 120.074545,33.88 120.074545,33.88 L120.074545,33.88 Z" id="Shape"></path>
                <path d="M82.32571,87.33183 L86.46859,90.5253 L55.42855,130.79346 L51.28567,127.59999 L82.32571,87.33183 L82.32571,87.33183 Z" id="Rectangle-path"></path>
                <ellipse id="Oval" cx="24.7654545" cy="173.230909" rx="6.37272727" ry="6.37272727"></ellipse>
                <path d="M63.5909091,119.663636 L45.8327273,105.794545 C43.1963636,103.736364 39.3927273,104.207273 37.3363636,106.841818 L34.8527273,110.021818 L34.7218182,109.916364 C32.0872727,107.856364 28.28,108.327273 26.2236364,110.96 L1.28181818,142.901818 C-0.772727273,145.536364 -0.305454545,149.34 2.32727273,151.398182 L2.45818182,151.501818 L2.25272727,151.767273 C0.194545455,154.4 0.665454545,158.205455 3.29818182,160.263636 L16.1818182,170.323636 C17.4,166.730909 20.7636364,164.129091 24.7654545,164.129091 C28.2454545,164.129091 31.2327273,166.105455 32.7636364,168.974545 L64.6345455,128.163636 C66.6927273,125.527273 66.2236364,121.721818 63.5909091,119.663636 L63.5909091,119.663636 Z" id="Shape"></path>
            </g>
        </g>
    </g>
</svg>