<?xml version="1.0" encoding="UTF-8" standalone="no"?>
<svg width="200px" height="29px" viewBox="0 0 200 29" version="1.1" xmlns="http://www.w3.org/2000/svg" xmlns:xlink="http://www.w3.org/1999/xlink" xmlns:sketch="http://www.bohemiancoding.com/sketch/ns">
    <!-- Generator: Sketch 3.4.4 (17249) - http://www.bohemiancoding.com/sketch -->
    <title>logo-new-york-times</title>
    <desc>Created with Sketch.</desc>
    <defs></defs>
    <g id="Logos" stroke="none" stroke-width="1" fill="none" fill-rule="evenodd" sketch:type="MSPage">
        <g id="logo-new-york-times" sketch:type="MSLayerGroup" fill="#000000">
            <path d="M11.7513449,0.0119545726 C11.562258,0.0209920383 11.3785114,0.0691123682 11.2014345,0.182307233 C11.9306635,0.328153019 12.7854154,0.426180514 13.2456665,1.09085475 C13.4763897,1.33592349 13.4046623,1.71249253 13.173939,1.92767484 C12.7375971,2.44769874 11.9886432,2.61087866 11.3478781,2.4447101 C9.17573222,1.93185894 7.12133891,0.934847579 4.8894202,0.675433353 C3.69396294,0.517632995 2.52540347,1.09264794 1.70053796,1.92468619 C0.93903168,2.68858338 0.662283323,3.84817693 0.812910938,4.89539749 C0.981470412,5.72384937 1.59533772,6.5845786 2.48356246,6.70651524 C1.95756127,6.13508667 1.85774059,5.14285714 2.4028691,4.54871488 C2.71129707,4.16616856 3.25941423,4.11356844 3.71488344,4.18410042 C5.4447101,4.50567842 7.13030484,5.02630006 8.85534967,5.37656904 C9.82127914,5.63956964 10.7758518,5.95337717 11.7632995,6.13269576 C11.7812313,7.31261207 11.7812313,8.49133293 11.7632995,9.67124925 C11.1261207,10.1470412 10.517633,10.6592947 9.89240885,11.1506276 C10.5008966,11.6060968 11.1285117,12.0328751 11.7573222,12.4596533 C11.7979677,14.1285117 11.7513449,15.7967723 11.7812313,17.4656306 C10.7519426,18.2606097 9.37298267,18.3897191 8.12014345,18.2426778 C6.78959952,18.1685595 5.60848775,17.3759713 4.7369994,16.4136282 C6.19784818,15.6341901 7.6867902,14.8989839 9.18111178,14.1841004 C9.23371189,11.552899 9.19067543,8.92050209 9.20502092,6.2881052 C7.33771668,7.07112971 5.48953975,7.89599522 3.62821279,8.6909743 C4.16616856,7.31500299 5.26060968,6.20023909 6.56604901,5.53795577 C6.22534369,5.55827854 5.86790197,5.53317394 5.54991034,5.68141064 C3.1063957,6.64614465 1.09264794,8.71966527 0.334728033,11.2492528 C-0.172145846,12.8559474 -0.00896592947,14.6126718 0.540944411,16.1835027 C1.22235505,17.9312612 2.48296473,19.4781829 4.15421399,20.3616258 C5.09264794,20.8469815 6.10280932,21.301853 7.17872086,21.315003 C9.40585774,21.5002989 11.748954,20.6598924 13.2516438,18.9838613 C13.9079498,18.279737 14.2384937,17.3616258 14.5636581,16.4734011 C14.8649133,15.5983264 15.0011955,14.6670652 14.9701136,13.7417812 C14.2492528,15.1715481 13.2904961,16.5146444 11.9814704,17.462642 C11.9898386,15.7997609 11.9784866,14.1374776 11.9844543,12.4745965 C12.5534919,12.0406455 13.1249205,11.6072923 13.6760263,11.1506276 C13.110575,10.649731 12.5487101,10.1494322 11.9844543,9.64734011 C11.9868452,8.4781829 11.9820634,7.30663479 11.9844543,6.13867304 C13.257621,6.07172744 14.7226539,5.39988045 15.0657501,4.06455469 C15.3048416,3.19306635 15.4297669,2.160789 14.8953975,1.37178721 C14.4040646,0.81231321 13.7668858,0.326359833 13.0185296,0.191273162 C12.6043036,0.15511058 12.1673363,-0.00792778482 11.7513449,0.0119545726 L11.7513449,0.0119545726 Z M5.79497908,8.03048416 C5.79019725,10.5648536 5.8099223,13.099223 5.78601315,15.6335923 C5.36282128,15.7997609 4.94680215,15.9814704 4.53078302,16.1655708 C3.76329946,15.054991 3.28631201,13.7477585 3.06634788,12.420801 C3.00657501,11.3006575 3.21458458,10.1661686 3.60430365,9.11536163 C4.34070532,8.76509265 5.06096832,8.38673042 5.79497908,8.03048416 L5.79497908,8.03048416 Z" id="path6" sketch:type="MSShapeGroup"></path>
            <path d="M151.814102,0.0119545726 C151.609038,0.00569946204 151.408545,0.0460251046 151.219366,0.182307233 C151.649731,0.281530185 152.104598,0.323968918 152.507467,0.526001195 C152.866104,0.698147041 153.103407,1.05439331 153.227735,1.42259414 C153.29468,1.82068141 153.002989,2.18768679 152.653915,2.33711895 C152.027496,2.62641961 151.316791,2.49252839 150.678417,2.31918709 C149.148232,1.85056784 147.658099,1.24447101 146.096832,0.878661088 C145.29468,0.707710699 144.453681,0.546323969 143.643161,0.759115362 C142.76449,1.00657501 141.872679,1.42737597 141.353851,2.21159594 C140.684395,3.07591154 140.60012,4.26479378 140.926479,5.28093246 C141.195457,5.95875672 141.740586,6.62522415 142.51046,6.71249253 C142.259414,6.38971907 141.827261,6.06395696 141.951579,5.60370592 C142.020916,5.14704124 142.2104,4.68380155 142.57621,4.38732815 C142.94202,4.11117753 143.442917,4.1147639 143.867304,4.237896 C145.42379,4.52719665 146.943216,4.96413628 148.481769,5.32875075 C149.524208,5.54991034 150.525399,5.93903168 151.57501,6.13269576 C151.592952,7.30783025 151.579218,8.48296473 151.584,9.65929468 C151.019744,10.1578004 150.455488,10.6557083 149.898405,11.1625822 C150.46027,11.5965332 151.011978,12.0412433 151.581016,12.4656306 C151.589337,14.1380753 151.578051,15.8129109 151.590006,17.4865511 C150.602558,18.2265392 149.303096,18.4088464 148.105248,18.2426778 C146.781877,18.1637776 145.624674,17.3676031 144.746013,16.4255828 C145.105846,16.1745368 145.517083,16.01315 145.905607,15.8099223 C146.998255,15.2719665 148.07716,14.7089062 149.178176,14.1900777 C149.212844,11.5564854 149.182384,8.92169755 149.193114,6.2881052 C147.337764,7.07830245 145.49676,7.90555888 143.634238,8.67901973 C144.059821,7.66885834 144.740036,6.74476987 145.654561,6.12671847 C145.92832,5.8768679 146.205666,5.61506276 146.58104,5.52898984 C146.205666,5.5552899 145.817143,5.5427376 145.475242,5.71727436 C142.851213,6.77884041 140.613317,9.09444112 140.119594,11.9396294 C139.931907,13.3837418 140.066391,14.8834429 140.570883,16.2522415 C141.217626,17.858936 142.356294,19.286312 143.837466,20.1972504 C144.546372,20.6288105 145.307878,20.9760909 146.102857,21.2163778 C148.006025,21.5331739 150.047273,21.2594142 151.712545,20.2480574 C152.811161,19.4817693 153.831488,18.4883443 154.291739,17.1996414 C154.785463,16.105798 154.983909,14.9109384 155.009014,13.7178721 C154.779486,14.0179319 154.644992,14.3747759 154.450142,14.6951584 C153.817736,15.7567244 152.99945,16.7184698 152.002439,17.453676 C152.014393,15.7860132 151.9875,14.1183503 152.017377,12.4506874 C152.581643,12.0430365 153.11123,11.5887627 153.679063,11.1835027 C153.155452,10.6407651 152.56132,10.1721458 152.005423,9.66527197 C151.994673,8.49611476 152.018582,7.3257621 151.993468,6.1566049 C153.087311,6.08607292 154.193712,5.59533772 154.781877,4.63538553 C155.393951,3.64913329 155.390365,2.30543933 154.799809,1.31201435 C154.334776,0.697549313 153.603759,0.301852959 152.84823,0.188284519 C152.509016,0.16063957 152.155935,0.0223798016 151.814149,0.0119545726 L151.814102,0.0119545726 Z M145.809922,8.02749552 C145.824268,10.5570831 145.809922,13.0860729 145.815852,15.6156605 C145.384292,15.7961745 144.958106,15.98685 144.527751,16.1685595 C143.903713,15.2910938 143.417764,14.3042439 143.167914,13.2546324 C142.891763,11.8798565 142.964686,10.3897191 143.604256,9.12133891 C144.345439,8.76748356 145.075864,8.39689181 145.809874,8.02749552 L145.809922,8.02749552 Z" id="path8" sketch:type="MSShapeGroup"></path>
            <path d="M56.9025702,0.854751943 C57.6150628,2.10280932 57.1691572,3.79438135 56.096832,4.69336521 C55.4381351,5.12253437 54.6802152,5.35923491 53.9378362,5.59952182 C53.9545726,10.7041243 53.9402271,15.8099223 53.9426181,20.9145248 C53.9952182,21.147639 53.7812313,21.3305439 53.5612672,21.2372983 C53.1273162,21.2169755 53.0125523,20.7591154 52.8284519,20.4506874 C50.1578004,15.539749 47.5158398,10.6120741 44.8236701,5.7118948 C44.7722654,9.31619845 44.8224746,12.9240885 44.7985655,16.5295876 C46.070532,16.7698745 47.3090257,17.3831441 48.141064,18.3945009 C48.5271967,18.0956366 48.7770472,17.5696354 49.2719665,17.4488942 C49.1464435,17.6772265 48.9635386,17.8649133 48.7890018,18.0561865 C47.8266587,19.1213389 46.8667065,20.1912732 45.9055589,21.2588165 C45.4596533,20.6969516 44.8655111,20.1637776 44.1219366,20.0872684 C43.6329946,20.0681411 43.0675433,20.0932457 42.7112971,20.4793784 C42.3012552,20.8451883 42.0263001,21.4620442 42.3191871,21.9844591 C42.6622833,22.7340108 43.5254035,22.9372385 44.2522415,23.1165571 C43.343694,23.2958757 42.3263598,23.1906754 41.5935445,22.5821877 C41.0101614,22.083682 40.4805738,21.4512851 40.3287507,20.6790197 C40.1243276,19.6150628 40.4423192,18.4327555 41.2372983,17.678422 C42.1063957,16.8188882 43.3807531,16.4985057 44.5738195,16.5666467 C44.6060968,14.9958159 44.5917513,13.4249851 44.5809922,11.8541542 C44.0011955,11.762104 43.2109982,11.8445906 42.9408249,12.4506874 C42.78422,12.9420203 43.1524208,13.3556485 43.5170353,13.6246264 C43.0651524,13.5457262 42.5630604,13.4596533 42.2367005,13.1093843 C41.8517633,12.6347878 41.552899,12.0741184 41.4417215,11.469217 C41.3305439,10.6909743 41.5349671,9.80394501 42.182905,9.30304842 C42.8607292,8.77824268 43.7632995,8.70651524 44.5905559,8.72564256 L44.5905559,5.40466228 C44.2904961,4.9539749 44.0023909,4.43753736 43.4871488,4.20442319 C43.1500299,4.06455469 42.7101016,4.01434549 42.4196055,4.27734608 C42.0179319,4.6180514 41.9210998,5.15959354 41.762104,5.63419008 C41.60789,4.47579199 41.7238494,3.16198446 42.5355649,2.25343694 C43.5158398,0.983861327 45.5899582,0.937238494 46.6622833,2.11117753 C47.1261207,2.58816497 47.4441124,3.17632995 47.7597131,3.75612672 C49.7441721,7.28989839 51.6891811,10.8463837 53.6939629,14.3682008 C53.7059175,11.4476987 53.7118948,8.52480574 53.691572,5.60430365 C53.3472803,5.47041243 52.9635386,5.4739988 52.6132696,5.35206216 C51.9605499,5.17991632 51.4166169,4.75911536 50.9336521,4.30364614 C50.6323969,4.65750149 50.3287507,5.01016139 50.0478183,5.37955768 C49.9820681,5.34369396 49.8517633,5.27316198 49.7860132,5.23729827 C50.8141064,3.94142259 51.916318,2.70412433 52.9862522,1.44172146 C53.5469217,2.03227735 54.2785415,2.51524208 55.1129707,2.56903766 C55.9844591,2.46861925 56.8416019,1.77166766 56.9025702,0.854751943 L56.9025702,0.854751943 Z" id="path10" sketch:type="MSShapeGroup"></path>
            <path d="M123.635386,3.68200837 C125.069934,2.74716079 126.502092,1.80394501 127.941423,0.876270173 C127.953377,6.39210998 127.930663,11.9091452 127.953377,17.4249851 C128.264196,17.8481769 128.688583,18.196055 129.065152,18.5678422 C129.301853,18.3144053 129.548117,18.0717274 129.79199,17.8266587 C129.849372,17.8840406 129.964136,17.9988045 130.022714,18.054991 C128.873879,19.0508069 127.760909,20.0848775 126.604901,21.0699342 C125.876868,20.3227735 125.12373,19.6019127 124.401674,18.8511656 C124.077705,19.1392708 123.781231,19.4548715 123.47639,19.762104 C123.414226,19.7142857 123.289898,19.6174537 123.227735,19.5696354 C123.77884,19.0424387 124.369396,18.559474 124.926479,18.0370592 C124.921698,13.8565451 124.930066,9.67603108 124.921698,5.49671249 C124.908548,4.71488344 124.51046,3.77884041 123.635386,3.68200837 L123.635386,3.68200837 Z" id="path12" sketch:type="MSShapeGroup"></path>
            <path d="M16.5188285,3.84459056 C17.7537358,2.92408846 18.964734,1.97011357 20.2008368,1.05319785 C20.2068141,4.09205021 20.1996414,7.13209803 20.2044232,10.1721458 C21.2504483,9.3090257 22.3048416,8.45666467 23.3401076,7.58158996 C24.1709504,8.44351464 24.9468022,9.35923491 25.8027496,10.1936641 C26.1637776,9.93424985 26.5343694,9.68798565 26.9133293,9.45606695 C26.8451883,9.93783622 26.2689779,10.1028093 25.9701136,10.4387328 C25.9736999,12.1004184 25.9701136,13.7609085 25.971309,15.4225941 C25.9952182,16.6646742 25.8158996,17.8983861 25.7788404,19.1392708 C25.7226539,20.4853556 25.2002391,21.861327 24.1506276,22.7447699 C23.2970711,23.5074716 22.1303048,23.7824268 21.0173341,23.874477 C20.9982068,23.900777 20.9575613,23.9545726 20.9372385,23.9820681 L20.9671249,23.8840406 C20.5833831,23.8840406 20.2008368,23.8696952 19.8182905,23.8410042 C20.2988643,23.5923491 20.8427974,23.4333533 21.2217573,23.022116 C21.6569038,22.5367603 22.1637776,22.0741184 22.3777645,21.4393305 C22.7280335,20.4710102 22.7387926,19.427376 22.7734608,18.4112373 C22.7638972,16.1338912 22.78422,13.8553497 22.7627017,11.579199 C22.2558279,10.9181112 21.6485356,10.334728 21.1105798,9.69635386 C20.8164973,10.0107591 20.4638374,10.2749552 20.2115959,10.6240287 C20.1912732,12.9742977 20.209205,15.3257621 20.2032277,17.6760311 C20.5080693,17.9796772 20.8117155,18.2857143 21.118948,18.5869695 C21.3652122,18.3395099 21.6114764,18.0908548 21.8577406,17.8421996 C21.9127316,17.8959952 22.0215182,18.0035864 22.0765093,18.0573819 C20.881052,18.9922295 19.6975493,19.9414226 18.5020921,20.8750747 C17.7453676,20.2032277 17.006575,19.5122534 16.2618051,18.8272564 C16.0119546,19.0137478 15.762104,19.20263 15.511058,19.3879259 C15.4572624,19.3317394 15.3520622,19.2193664 15.2982666,19.1631799 C15.8720861,18.7937836 16.4351464,18.4076509 17.0029886,18.0310819 C17.0017932,13.8517633 17.0017932,9.67364017 17.0029886,5.49432158 C16.9910341,5.17513449 17.006575,4.8308428 16.8380155,4.54632397 C16.726838,4.32875075 16.475792,4.25941423 16.2881052,4.12791393 C16.2462642,3.98924088 16.4447101,3.93066348 16.5188285,3.84459056 L16.5188285,3.84459056 Z" id="path14" sketch:type="MSShapeGroup"></path>
            <path d="M98.8553449,1.62582188 C97.7316151,2.53556485 96.633009,3.47340108 95.5200191,4.39629408 C95.5080646,3.5260012 95.5349671,2.65750149 95.5050807,1.78720861 C95.3329348,1.77884041 95.2570377,1.85654513 95.2809277,2.02032277 C95.2749982,8.17214585 95.2827448,14.3233712 95.2779629,20.4751943 C94.6706707,20.3592349 94.0621829,20.237896 93.4608679,20.1016139 C93.4513042,14.9133293 93.4602941,9.72624029 93.457884,4.53676031 C93.444734,3.88045427 93.2319426,3.22056186 92.8003825,2.71966527 C92.2624268,2.08248655 91.4214226,1.78661088 90.6097071,1.73042439 C89.647364,1.70292887 88.7651166,2.20860729 88.0932696,2.8601315 C87.4752182,3.44710102 87.1434788,4.35445308 87.319211,5.19725045 C87.3945248,4.67483562 87.5648775,4.08607292 88.0454513,3.79557681 C88.5726479,3.57083084 89.2749791,3.75194262 89.5905798,4.24686192 C89.8607531,4.64614465 89.8876509,5.14524806 89.89841,5.61267185 C89.900801,7.01494322 89.8972146,8.41721458 89.89841,9.82068141 C88.9731261,9.8350269 87.8804782,9.98445906 87.3461088,10.8427974 C86.808153,11.5146444 86.6419845,12.4674238 87.0113808,13.257621 C87.2540347,14.0394501 88.0669456,14.4423192 88.8224746,14.5666467 C88.3992827,14.292887 87.9689181,13.8111178 88.2187687,13.2755529 C88.5546922,12.7375971 89.3185894,12.658697 89.8864316,12.8153019 C89.9091452,15.3042439 89.8983861,17.7919904 89.8924088,20.2809325 C89.0436342,20.5774059 88.2175732,21.0920502 87.7644949,21.8918111 C87.4345487,22.4620442 87.4261805,23.1440526 87.453676,23.7836222 C87.5552899,24.9049611 88.2952779,25.9288703 89.2887029,26.440526 C90.0394501,26.7919904 90.8846384,26.8027496 91.6975493,26.775254 C94.0047818,26.6377764 96.1966671,25.7220562 98.5086623,25.6455469 C99.1972648,25.5941423 99.6007173,26.3550508 99.4202032,26.951584 C99.2827256,27.4907352 98.8308428,27.8553497 98.4040646,28.1709504 C99.21578,27.9988045 100.023909,27.6939629 100.657501,27.1428571 C101.372385,26.5367603 101.701136,25.559474 101.655708,24.6413628 C101.601913,23.7328153 100.869097,23.0567842 100.107591,22.6658697 C99.1046025,22.0777047 97.8936043,22.2086073 96.7901973,22.328153 C94.7172744,22.5672445 92.6969516,23.2253437 90.6037059,23.2815302 C89.8936043,23.3293485 89.2307233,22.8266587 89.0884638,22.1309026 C88.9282726,21.460251 89.4728033,20.8738793 90.0239091,20.5857741 C91.2169755,20.0227137 92.5899582,20.231321 93.8344292,20.4931261 C95.2773509,20.6437537 96.6312014,21.2325164 98.0753138,21.3807531 C98.8953975,21.4739988 99.7662929,21.3161984 100.439335,20.8188882 C101.132672,20.3909145 101.445308,19.5570831 101.464435,18.7716677 C101.472851,13.8750747 101.455445,8.9790795 101.473425,4.08248655 C101.920555,3.69396294 102.413657,3.34548715 102.803376,2.89599522 C102.258247,3.03108189 101.916347,3.54213987 101.470441,3.85534967 C100.589389,3.12253437 99.7268715,2.37059175 98.8553736,1.62582188 L98.8553449,1.62582188 Z M96.4106444,4.10041841 C96.9127364,4.53078302 97.4070532,4.96951584 97.9079498,5.40346683 C97.9091931,6.94560669 97.9044112,8.48774656 97.9079498,10.0298864 C97.6700538,10.2641961 97.4100466,10.5116557 97.062159,10.5558876 C96.4955218,10.6754334 95.9438135,10.3950986 95.5170353,10.0448296 C95.5194262,8.24447101 95.5182785,6.4447101 95.5170353,4.64435146 C95.8158996,4.46503288 96.1141614,4.28571429 96.4106444,4.10041841 L96.4106444,4.10041841 Z M95.5170353,10.4722056 C96.251046,10.8451883 97.1954573,10.958159 97.9079498,10.4751895 C97.9055589,11.174532 97.9055589,11.8768631 97.9079498,12.5762056 C97.6186491,12.2940777 97.2468619,12.0699295 96.8320383,12.0711249 C96.3442917,12.0603658 95.8959952,12.2904913 95.5170353,12.5762056 C95.5194262,11.8756677 95.515792,11.1739342 95.5170353,10.4722008 L95.5170353,10.4722056 Z M96.826061,12.2922893 C97.299462,12.3042439 97.6628811,12.6575015 97.9079498,13.0304842 C97.9044112,14.9826659 97.9091931,16.936043 97.9079498,18.8882247 C97.9462044,19.4871488 97.5337717,19.9994023 97.0830843,20.343694 C96.6479378,20.6891811 96.0573819,20.7011357 95.5289898,20.6724447 C95.4991034,18.1225344 95.5277466,15.5684399 95.5170353,13.0185296 C95.858936,12.6467424 96.2916916,12.2851166 96.826061,12.2922893 L96.826061,12.2922893 Z" id="path16" sketch:type="MSShapeGroup"></path>
            <path d="M155.679617,4.80812911 C156.454274,4.12910938 157.183503,3.39988045 157.974895,2.73998805 C158.644351,3.44650329 159.349671,4.11835027 160.029886,4.8141064 C159.213389,5.57800359 158.39211,6.33592349 157.564854,7.08786611 C156.939629,6.32396892 156.296473,5.57800359 155.679617,4.80812911 L155.679617,4.80812911 Z" id="path18" sketch:type="MSShapeGroup"></path>
            <path d="M66.2713688,5.53496712 C66.755529,5.20263001 67.3676031,5.22295278 67.9270771,5.15122534 C67.5050807,5.48475792 67.0364614,5.87208607 66.9790795,6.44710102 C66.8846384,6.96114764 67.2098027,7.4237896 67.5887627,7.73221757 C68.2785415,8.28451883 69.1643754,8.5929468 69.7262403,9.3006575 C69.9964136,9.64255828 70.1601913,10.0753138 70.1482367,10.5140466 C70.1446503,12.8332337 70.1506276,15.1512253 70.1446503,17.469217 C70.7615063,17.9677227 71.3807531,18.460251 71.9964136,18.9587567 C72.1757322,18.8427974 72.3550508,18.726838 72.5355649,18.6108787 C72.5271967,16.0800956 72.5487149,13.5481172 72.5248057,11.0185296 C72.2080096,10.6443515 71.7692767,10.376569 71.4070532,10.0430365 C72.2964734,9.22414824 73.1679617,8.38374178 74.0753138,7.58517633 C74.8643156,8.35983264 75.6939629,9.09264794 76.5032875,9.84578601 C76.196055,10.1721458 75.8792588,10.4865511 75.5552899,10.7949791 C75.5493126,13.019725 75.5552899,15.244471 75.5517035,17.469217 C76.3598326,18.0956366 77.1679617,18.7232516 77.9844591,19.3401076 C78.099223,19.273162 78.2151823,19.2074118 78.3335326,19.1416617 C78.321578,16.4243873 78.334728,13.7083084 78.3263598,10.9910341 C77.9521817,10.671847 77.5648536,10.3670054 77.1954573,10.041841 C78.0681411,9.21697549 78.951584,8.40645547 79.8290496,7.58756724 C80.7029289,8.2713688 81.5780036,8.95517035 82.447101,9.64494919 C82.7483562,9.31261207 83.0567842,8.98266587 83.4010759,8.69216975 C83.4453078,8.75552899 83.5361626,8.88344292 83.5803945,8.94680215 C82.8368201,9.60908548 82.0980275,10.279737 81.3771668,10.9671249 C81.315003,13.1332935 81.3759713,15.3066348 81.3472803,17.4739988 C79.4548715,18.7172744 77.4787806,19.8517633 75.5588763,21.061566 C74.546324,20.3359235 73.5624626,19.5708308 72.5630604,18.8284519 C71.6664674,19.5493126 70.768679,20.2713688 69.8661088,20.9850568 C69.7369994,21.1285117 69.6043036,20.9193066 69.4979079,20.8595338 C68.6539151,20.1817095 67.8147041,19.4979079 66.9599522,18.8356246 C66.601315,19.1488344 66.224746,19.4417215 65.8649133,19.7549313 C65.8075314,19.6999402 65.6951584,19.5911536 65.6377764,19.537358 C66.0765093,19.2337119 66.5056784,18.9145248 66.9444112,18.6108787 C66.9468022,16.5104603 66.9468022,14.4112373 66.9444112,12.3108189 C66.9432158,11.748954 66.7459653,11.1799163 66.3622236,10.7638972 C65.9402271,10.3060371 65.3723849,9.98445906 65.0364614,9.44769874 C64.6646742,8.82367005 64.6312014,8.05020921 64.7734608,7.35325762 C64.9814704,6.56545129 65.6066946,5.96533174 66.2713688,5.53496712 L66.2713688,5.53496712 Z" id="path22" sketch:type="MSShapeGroup"></path>
            <path d="M199.318589,7.03526599 C199.404662,7.25523013 199.432158,7.50089659 199.324519,7.71966527 C199.060323,8.32337119 198.340658,8.5552899 197.728583,8.54453078 C197.087818,8.48714883 196.588117,8.02630006 196.156557,7.59115362 C195.43211,8.07650926 194.704077,8.55827854 193.980825,9.04363419 C193.146396,9.6054991 192.225301,10.0203228 191.300007,10.4064555 C191.296469,11.59474 191.300964,12.7806336 191.297042,13.9689181 C191.972476,14.5319785 192.667036,15.0699342 193.32932,15.6485356 C192.82125,16.1864913 192.320354,16.7322176 191.840975,17.2952779 C191.348447,17.8882247 190.883414,18.5732218 190.854723,19.3693963 C190.826032,20.2743574 191.21336,21.2540347 192.014317,21.733413 C192.368172,21.9414226 192.798537,22.1267185 193.209774,21.9665272 C192.698118,21.7836222 192.068705,21.4130305 192.112937,20.7890018 C192.255206,20.1984459 192.956337,19.8033473 193.538525,19.9731022 C194.142231,20.1452481 194.640736,20.5768081 195.026869,21.0609683 C196.578573,19.9432158 198.212763,18.9444112 199.910312,18.0633592 C199.897162,16.5558876 199.931237,15.0448296 199.895364,13.5385535 C199.145831,13.0125523 198.430929,12.4393305 197.689755,11.9037657 C198.473965,10.9103407 199.262958,9.85953377 199.590532,8.61625822 C199.712449,8.09145248 199.753707,7.42976689 199.318561,7.03526599 L199.318589,7.03526599 Z M194.321578,9.29468022 C194.824866,10.0179319 195.491338,10.7214585 196.404658,10.8696952 C197.31441,11.083682 198.196055,10.5905559 198.792588,9.93424985 C197.976091,11.4441124 196.709499,12.656306 195.400473,13.7417812 C195.046628,13.3664077 194.66587,13.0167364 194.315601,12.6389719 C194.329946,11.5248057 194.317992,10.4088464 194.32153,9.29468022 L194.321578,9.29468022 Z M195.603701,13.8015541 C195.995811,14.1315003 196.383149,14.4674238 196.775249,14.7997609 C196.954568,14.9073521 196.866707,15.132098 196.891811,15.301853 C196.881052,16.5965332 196.907945,17.8953975 196.876873,19.1900777 C196.583976,18.5277944 196.145253,17.9115362 195.526006,17.5194262 C194.628218,16.9324567 193.393903,16.8983861 192.480574,17.4686192 C192.062164,17.700538 191.727436,18.0466228 191.41064,18.3980873 C191.863718,17.5134489 192.59594,16.8153019 193.284514,16.1147639 C194.071134,15.356844 194.857736,14.6001195 195.603701,13.8015541 L195.603701,13.8015541 Z" id="path24" sketch:type="MSShapeGroup"></path>
            <path d="M34.1751345,7.58816497 C33.1422594,8.1858936 32.1440526,8.83801554 31.1326958,9.46802152 C30.2755529,9.91512253 29.4046623,10.3371189 28.5415421,10.7710699 C28.5451285,13.1918709 28.5379558,15.6126718 28.5475194,18.0334728 C28.1793186,18.3191871 27.7495517,18.5248057 27.4148237,18.852361 C27.4793784,18.8906157 27.6072923,18.9683204 27.671847,19.0077705 C27.9611476,18.7579199 28.2474597,18.5032875 28.5654513,18.2904961 C29.6353855,19.1799163 30.6449492,20.1428571 31.7124925,21.0370592 C31.7650926,21.0095637 31.8708906,20.9539749 31.9246862,20.9264794 C33.7322176,19.5254035 35.5582785,18.1452481 37.3670054,16.7453676 L37.1428571,16.5481172 C36.1362821,17.3323371 35.1572026,18.1578004 34.1601913,18.9539749 C33.3365212,18.2127914 32.539749,17.4423192 31.7184698,16.6975493 C31.4387328,16.4931261 31.5953377,16.1052002 31.5750149,15.8158996 C33.2618051,14.5809922 34.9491931,13.3454871 36.6108787,12.077107 C35.7812313,10.5899582 34.9784818,9.08965929 34.1751345,7.58816497 L34.1751345,7.58816497 Z M31.5690377,9.37238494 C32.4225941,10.7746563 33.2803347,12.1721458 34.1243276,13.5803945 C33.2659892,14.1841004 32.4148237,14.7949791 31.566049,15.4094441 C31.5576808,13.3974895 31.5534967,11.3843395 31.5690329,9.37238494 L31.5690377,9.37238494 Z" id="path26" sketch:type="MSShapeGroup"></path>
            <path d="M62.1309026,7.58517633 C61.4028691,8.06455469 60.6700538,8.53795577 59.9252839,8.98983861 C58.8362224,9.67124925 57.6557083,10.1841004 56.5152421,10.7710699 C56.5188285,13.1906754 56.5086623,15.6108787 56.5182259,18.0304842 C56.1667615,18.2922893 55.7782379,18.4997011 55.4363371,18.7746563 C55.4722008,18.8380155 55.5469169,18.9653317 55.5827806,19.028691 C55.9617406,18.7740586 56.3359187,18.5128512 56.7244423,18.2725643 C57.7035218,19.2086073 58.6969468,20.1303048 59.683199,21.0579797 C61.5277896,19.6879857 63.3377119,18.2689779 65.1643706,16.8738793 C65.3986802,16.826061 65.2062116,16.4459056 65.0567794,16.5929468 C64.0669408,17.3604304 63.1063909,18.167364 62.1308978,18.9539749 C61.3658051,18.1948595 60.6060921,17.4321578 59.8445858,16.6706515 C59.5983216,16.4542738 59.7441674,16.0932457 59.7310173,15.8099223 C61.3544483,14.6049014 62.9276701,13.3311417 64.5546874,12.1309026 C63.8051405,10.5887627 62.9282726,9.10460251 62.1309026,7.58517633 L62.1309026,7.58517633 Z M59.7101016,9.42020323 C60.5469217,10.7830245 61.3138075,12.1912732 62.0860729,13.5923491 C61.2887029,14.1769277 60.5182307,14.79737 59.7280335,15.3915123 C59.6909743,13.4022714 59.7280335,11.4106396 59.7101016,9.42020323 L59.7101016,9.42020323 Z" id="path28" sketch:type="MSShapeGroup"></path>
            <path d="M109.285719,7.59115362 C108.487154,8.05618649 107.699347,8.53556485 106.924681,9.0376569 C106.014948,9.59234907 105.020921,9.98625224 104.0526,10.4213987 C104.075314,12.9605499 104.059199,15.5002989 104.06159,18.0394501 C103.737611,18.3622236 103.410659,18.6838016 103.096253,19.0137478 C103.162004,19.0101614 103.293504,19.0005977 103.359254,18.9958159 C103.588782,18.7507472 103.827873,18.5116557 104.064574,18.2725643 C105.151244,19.1619845 106.221772,20.070532 107.301279,20.9683204 C107.479402,21.1404662 107.680832,20.8840406 107.854173,20.8218769 C109.589977,19.8726838 111.230145,18.7543335 113.018549,17.9019725 C113.046044,15.5361626 113.026965,13.1709504 113.030503,10.803945 C113.353277,10.4811715 113.680239,10.1595935 113.99584,9.82964734 C113.932471,9.8308428 113.806355,9.83621757 113.7418,9.83860849 C113.440545,10.0860681 113.135704,10.3269528 112.833253,10.5708261 C111.64975,9.57859653 110.471632,8.57859653 109.285738,7.59114883 L109.285719,7.59115362 Z M107.262403,9.34548715 C108.115959,10.147639 108.985057,10.9378362 109.838613,11.742379 C109.830197,14.2612074 109.832684,16.7788404 109.832684,19.2976689 C108.957609,18.5301853 108.126766,17.7160789 107.262451,16.9366408 L107.262451,9.34548715 L107.262403,9.34548715 Z" id="path30" sketch:type="MSShapeGroup"></path>
            <path d="M128.090855,13.2337119 C129.322176,11.343694 130.579797,9.47041243 131.8422,7.59952182 C132.384937,8.06216378 133.066348,8.35265989 133.777645,8.42438733 C134.475792,8.42558279 135.07113,8.01075912 135.597131,7.59593545 C135.464435,8.61566049 135.124925,9.67483562 134.341901,10.3837418 C133.659295,11.0101614 132.624029,11.160789 131.764495,10.8547519 C131.257621,10.6826061 130.789002,10.4124328 130.369396,10.0812911 C130.295278,10.2558279 130.23431,10.4363419 130.190078,10.6204423 C131.937836,13.2528392 133.654513,15.9091452 135.371189,18.5630604 C135.76569,18.3072325 136.111178,17.9844591 136.459056,17.6700538 C136.527197,17.7130903 136.662283,17.7991632 136.730424,17.8421996 C135.495517,18.9432158 134.22116,20 132.95517,21.0663479 C131.328153,18.4590556 129.736999,15.8290496 128.090855,13.2337119 L128.090855,13.2337119 Z" id="path32" sketch:type="MSShapeGroup"></path>
            <path d="M187.217578,7.58816497 C186.457258,8.05080693 185.693963,8.51285117 184.943216,8.98983861 C183.904363,9.7118948 182.713085,10.1613867 181.610883,10.7710699 C181.622838,13.1906754 181.610883,15.6120741 181.616813,18.0304842 C181.236658,18.2815302 180.861293,18.537358 180.481129,18.7836222 C180.530152,18.8433951 180.629375,18.9659295 180.678389,19.0257023 C181.005944,18.7830245 181.301815,18.4949193 181.65567,18.2845188 C182.641922,19.2014345 183.673602,20.0687388 184.6742,20.971309 C184.769836,21.1243276 184.909112,20.9677227 185.005944,20.9055589 C186.808693,19.5164375 188.616225,18.1356844 190.421365,16.7513449 C190.209769,16.3807531 189.969482,16.739988 189.757877,16.8918111 C188.910307,17.58159 188.064516,18.2707711 187.214546,18.9569635 C186.345449,18.1643754 185.506238,17.3424985 184.620404,16.5690377 C184.607254,16.3203825 184.605456,16.070532 184.617439,15.8218769 C186.309021,14.5965332 187.980863,13.3424985 189.659285,12.0980275 C188.851156,10.5905559 188.040043,9.08607292 187.217568,7.58816497 L187.217578,7.58816497 Z M184.608488,9.41422594 C185.523013,10.7662881 186.32636,12.1948595 187.184698,13.5863718 C186.314405,14.182905 185.468022,14.8141064 184.60251,15.4154214 C184.616856,13.4154214 184.603754,11.4142259 184.60844,9.41422594 L184.608488,9.41422594 Z" id="path34" sketch:type="MSShapeGroup"></path>
            <path d="M117.453676,7.78720861 C118.137478,8.41004184 118.712493,9.1440526 119.34728,9.81709504 C120.038255,9.15481172 120.713688,8.47340108 121.380753,7.78601315 C121.866109,8.09683204 122.371787,8.53317394 122.99462,8.40765093 C123.433353,8.37776449 123.661686,7.94739988 124.034668,7.77166766 C124.035864,8.68619247 123.825463,9.64734011 123.220562,10.3574417 C122.527197,11.1870891 121.21578,11.4297669 120.288105,10.8607292 C119.931859,10.6873879 119.695158,10.3550508 119.362821,10.1506276 C119.371189,12.6515242 119.367603,15.1512253 119.365212,17.6521219 C119.857741,18.0310819 120.351464,18.4088464 120.858338,18.7698745 C121.226539,18.5283921 121.509863,18.083682 121.974895,18.041841 C120.882247,19.0818888 119.736999,20.0717274 118.597729,21.0627615 C117.741781,20.2558279 116.866707,19.469217 116.020323,18.6527197 C115.690377,18.9491931 115.385535,19.2719665 115.07113,19.5839809 C115.020921,19.5254035 114.920502,19.4094441 114.870293,19.3508667 C115.285117,18.8894202 115.747759,18.4734011 116.172146,18.0203228 C116.156605,15.8804543 116.180514,13.7405858 116.161387,11.6019127 C115.93425,11.061566 115.539749,10.5929468 115.254035,10.0765093 C114.86312,10.3072325 114.578601,10.7878063 114.09205,10.8045427 C115.197848,9.78242678 116.353855,8.81530185 117.453676,7.78720861 L117.453676,7.78720861 Z" id="path36" sketch:type="MSShapeGroup"></path>
            <path d="M161.813509,10.462642 C162.830843,9.5720263 163.826659,8.65869695 164.84997,7.77525403 C165.583981,8.5845786 166.343096,9.37118948 167.063957,10.1924686 C168.14465,9.41183503 169.182307,8.57262403 170.252241,7.77525403 C171.001793,8.57860132 171.736999,9.39509863 172.493724,10.1924686 C173.554094,9.38912134 174.601315,8.56903766 175.668858,7.77644949 C176.398087,8.58936043 177.15003,9.3819486 177.887627,10.1876868 C178.33951,9.89958159 178.754334,9.55409444 179.214585,9.27794381 C179.249253,9.54572624 179.00538,9.66766288 178.835625,9.81589958 C178.58936,10.0143455 178.350269,10.2223551 178.104005,10.4196055 C178.083682,12.6455469 178.108787,14.8714883 178.090855,17.0974298 C178.515242,17.537358 178.947998,17.9701136 179.389121,18.3933054 C179.622236,18.1506276 179.861327,17.9127316 180.088464,17.6640765 C180.156605,17.707113 180.294082,17.7919904 180.362224,17.8350269 C179.246862,18.9336521 178.096832,19.9988045 176.951584,21.0663479 C176.14465,20.1135684 175.298267,19.1918709 174.51046,18.2223551 C174.701733,18.0466228 174.888225,17.8637179 175.072325,17.6796175 C175.074716,15.7597131 175.072325,13.8398087 175.072325,11.9210998 C174.462642,11.2408846 173.85535,10.5582785 173.226539,9.89599522 C173.04483,10.0812911 172.86312,10.2653915 172.683802,10.4518828 C172.681411,12.852361 172.693365,15.2528392 172.677824,17.6533174 C172.980275,17.9928273 173.32098,18.2964734 173.628213,18.6347878 C172.802152,19.3676031 172.005977,20.1350867 171.184698,20.8750747 C170.417215,20.0681411 169.661686,19.2492528 168.919307,18.420801 C169.130903,18.1601913 169.55529,17.971309 169.488344,17.5744172 C169.478781,15.7023311 169.497908,13.8290496 169.478781,11.958159 C168.967125,11.2456665 168.393305,10.5558876 167.800359,9.90555888 C167.627017,10.0896593 167.451285,10.2701733 167.274357,10.4506874 C167.279139,12.7758518 167.261207,15.1022116 167.282726,17.427376 C167.533772,17.8553497 167.90795,18.2056186 168.219964,18.5917513 C167.417812,19.4345487 166.58936,20.2534369 165.753736,21.0627615 C164.95517,20.1111775 164.127914,19.1846981 163.323371,18.2390915 C163.574417,18.0442319 163.827854,17.8517633 164.080096,17.6569038 C164.072923,15.6927675 164.06575,13.7274357 164.083682,11.7632995 C163.612672,11.1799163 163.096234,10.6347878 162.601315,10.0717274 C162.249851,10.3323371 161.940227,10.6598924 161.538553,10.8439928 C161.519426,10.6610879 161.69994,10.5738195 161.813509,10.462642 L161.813509,10.462642 Z" id="path38" sketch:type="MSShapeGroup"></path>
            <path d="M154.737597,10.6168559 C155.7896,9.65331739 156.878661,8.72683802 157.941423,7.77405858 C158.698147,8.63478781 159.433353,9.51464435 160.186491,10.37896 C160.577406,10.0729229 160.927675,9.70950389 161.36043,9.4572624 C161.328153,9.59473999 161.291094,9.7369994 161.16318,9.81470412 C160.839211,10.083682 160.517633,10.3538553 160.191273,10.6156605 C160.196055,12.8451883 160.18171,15.0735206 160.198446,17.3030484 C160.624029,17.7836222 161.063957,18.2546324 161.460849,18.7615063 C161.79199,18.559474 162.068141,18.2833234 162.383742,18.0585774 C162.450687,18.0944411 162.585774,18.1649731 162.65272,18.1996414 C161.601913,19.1846981 160.511656,20.1291094 159.416617,21.0627615 C158.688583,20.1876868 157.941423,19.3269576 157.196653,18.4650329 C156.872684,18.7591154 156.60251,19.1153616 156.24746,19.3711895 C156.19725,19.3245666 156.096832,19.2289301 156.046623,19.1811118 C156.362224,18.8822475 156.659892,18.5642558 156.980275,18.2677824 C157.00538,16.2426778 156.98147,14.2151823 156.99223,12.1900777 C156.973102,11.9079498 157.063957,11.5744172 156.843993,11.3496712 C156.454274,10.8655111 156.095637,10.3562463 155.680813,9.8936043 C155.372385,10.1434549 155.079498,10.4148237 154.737597,10.6168559 L154.737597,10.6168559 Z" id="path40" sketch:type="MSShapeGroup"></path>
        </g>
    </g>
</svg>