<?xml version="1.0" encoding="UTF-8" standalone="no"?>
<svg width="145px" height="33px" viewBox="0 0 145 33" version="1.1" xmlns="http://www.w3.org/2000/svg" xmlns:xlink="http://www.w3.org/1999/xlink" xmlns:sketch="http://www.bohemiancoding.com/sketch/ns">
    <!-- Generator: Sketch 3.4.4 (17249) - http://www.bohemiancoding.com/sketch -->
    <title>logo-skift</title>
    <desc>Created with Sketch.</desc>
    <defs></defs>
    <g id="Logos" stroke="none" stroke-width="1" fill="none" fill-rule="evenodd" sketch:type="MSPage">
        <g id="logo-skift" sketch:type="MSLayerGroup" transform="translate(0.000000, 0.326722)" fill="#FFB73C">
            <g id="Layer_1" sketch:type="MSShapeGroup">
                <g id="Group">
                    <path d="M15.8075925,0.155831675 C17.8484609,0.15603223 19.8893294,0.139185563 21.9297961,0.160243897 C24.6302013,0.188321676 26.9608722,1.12291061 28.8414757,3.08695127 C30.1936866,4.49926357 30.9152808,6.17370199 30.8957999,8.14716875 C30.8857583,9.14934492 30.9100591,10.1521227 30.8893733,11.1538978 C30.8586458,12.6420201 29.8603032,13.6462018 28.366304,13.6973435 C27.6979306,13.7202068 27.0271472,13.7256218 26.3593764,13.6943352 C25.0650055,13.6341685 24.1741087,12.7850162 24.0411571,11.5068756 C24.0066137,11.1757584 24.0128396,10.8398278 24.0118354,10.5061033 C24.0058104,8.41992432 22.8984153,7.1580287 20.8063344,7.10728814 C17.7972484,7.03448647 14.7841458,7.0479237 11.7742564,7.10267537 C9.97017052,7.13556648 8.61354128,8.37259321 8.60269628,9.82040384 C8.59084711,11.3871439 10.0826372,12.8335507 11.8650331,12.858219 C14.9088633,12.9005362 17.9551034,12.814899 20.9979294,12.8862968 C25.0023455,12.9801568 28.220499,14.5252369 30.0125349,18.2914698 C32.6534934,23.841444 29.2286823,31.0486088 23.2749779,32.1275978 C20.9441061,32.5499678 18.477471,32.3111061 16.0773117,32.2302822 C14.9257333,32.1913744 14.0701832,31.0478066 14.0296149,29.8661332 C14.0067199,29.1986843 14.0129457,28.5296309 14.0272049,27.8617809 C14.0587357,26.3862936 15.0622999,25.3676719 16.5597134,25.3133213 C17.3616409,25.2840402 18.1655768,25.3163296 18.9683076,25.304898 C21.0057619,25.2766196 22.4937362,24.1256312 22.4583895,22.6158489 C22.4208337,21.0035828 20.8179827,19.6468243 18.9130785,19.6414093 C15.8353075,19.6321838 12.7573357,19.6386016 9.67936383,19.6386016 C4.85675275,19.6386016 1.66952759,17.1653503 0.478385025,12.4994251 C-0.860169211,7.25630093 2.40839346,1.59562008 7.49911705,0.382860575 C8.14258709,0.229636123 8.82120296,0.174282787 9.48495716,0.165859453 C11.5921006,0.138784452 13.7000474,0.155631119 15.8075925,0.155831675 L15.8075925,0.155831675 Z" id="Shape"></path>
                    <path d="M34.7102276,16.1900486 C34.7102276,11.8468173 34.7078176,7.50358594 34.711031,3.16015405 C34.7124368,1.09142339 35.6414918,0.165257786 37.7096736,0.155831675 C38.044262,0.154427786 38.3788503,0.153425008 38.7134387,0.15603223 C40.6506771,0.170672787 41.5779246,1.10004728 41.5915813,3.06248349 C41.6022255,4.59934079 41.593188,6.13619809 41.594393,7.6730554 C41.5945938,7.93999485 41.532938,8.2336082 41.6217063,8.46906044 C41.8424222,9.05548491 42.1334297,9.61563661 42.3961197,10.1862172 C42.9413822,9.92770107 43.5758148,9.77267162 44.0170456,9.3936216 C46.7286974,7.06316592 49.3943584,4.67916191 52.0805044,2.31882345 C54.169372,0.483338914 57.4035921,1.58860064 57.9982597,4.34002245 C58.2416697,5.46574084 57.8193172,6.35239699 57.0097579,7.12253037 C55.9684371,8.11307431 54.9411745,9.11926158 53.938012,10.1483122 C52.6880252,11.4306645 52.8868502,12.2559506 54.5469387,12.8297401 C60.505664,14.8896463 64.7299925,20.5252577 65.0051342,26.8058558 C65.0489159,27.806227 65.0286317,28.809807 65.03305,29.8117827 C65.0338534,29.9780432 65.0262217,30.1477132 64.99449,30.3103638 C64.6954492,31.8418061 63.3924424,32.4675395 60.7532915,32.3532228 C59.2566814,32.2884433 58.3330488,31.4824105 58.1920638,30.0668893 C58.0502755,28.6435465 58.1211697,27.1752792 57.7946147,25.7988663 C56.8282046,21.7249811 53.2101919,18.948891 49.027235,18.9242226 C47.5906741,18.9157993 46.1468832,18.8967465 44.7181548,19.0194865 C42.862053,19.1787277 41.8207322,20.1586422 41.7042488,22.0318311 C41.5572388,24.3945763 41.6120663,26.7703575 41.5964013,29.1407237 C41.581138,31.4625555 40.7075129,32.3476072 38.3860803,32.3550278 C38.051492,32.3562311 37.7167028,32.3642533 37.3825161,32.3516183 C35.708771,32.289045 34.7190643,31.2970972 34.7144451,29.6212549 C34.7021943,25.1440524 34.7102276,20.6670505 34.7102276,16.1900486 L34.7102276,16.1900486 Z" id="Shape"></path>
                    <path d="M97.9000292,0.155831675 C101.044879,0.155831675 104.189728,0.15061723 107.334778,0.157636675 C109.283464,0.162048897 110.130981,1.10606395 110.241841,3.04383182 C110.439059,6.49479145 109.151516,7.16785593 106.142832,7.1092937 C101.427466,7.01743925 96.708485,7.09024092 91.9913114,7.08101537 C90.9106272,7.07900981 89.9351796,7.33913038 89.1402813,8.09622764 C88.0085854,9.1738127 88.0140079,10.7844744 89.3294663,11.6199889 C90.1259713,12.1255895 91.1737189,12.4420662 92.1200456,12.4705451 C95.4291766,12.571224 98.7433284,12.506244 102.055472,12.5108568 C104.112005,12.5138651 105.050098,13.4578801 105.057127,15.5137752 C105.058533,15.9146858 105.063353,16.315797 105.055922,16.716507 C105.023387,18.4442932 104.041714,19.4486754 102.296673,19.4572993 C98.4157693,19.4767532 94.5348657,19.4629149 90.6537613,19.4645193 C88.040317,19.4655221 86.7820961,20.7207994 86.7814936,23.3244118 C86.7808911,25.3957496 86.791937,27.4672881 86.7778786,29.538626 C86.7658286,31.3484394 85.8050419,32.3099028 83.9955335,32.3524206 C83.527391,32.3634511 83.0584451,32.3662589 82.5905034,32.3508161 C80.9105325,32.2948611 79.9184158,31.3119383 79.9033533,29.6381015 C79.8826675,27.3329159 79.9613941,25.0253235 79.8810608,22.7229456 C79.7882758,20.0685927 81.0209909,18.2848515 83.2642993,17.0538414 C83.7880727,16.7662448 84.3295194,16.4744364 84.7715535,16.0819492 C85.4606127,15.4700541 85.4198436,14.7845552 84.6942327,14.2193896 C84.276901,13.8942891 83.7926918,13.6504135 83.3253526,13.3939029 C79.7304358,11.4204361 78.7706532,7.59744595 81.0928892,4.19100966 C82.9678693,1.44059063 85.6799228,0.192332788 88.9673638,0.161447231 C91.9443164,0.133770562 94.9224741,0.155831675 97.9000292,0.155831675 L97.9000292,0.155831675 Z" id="Shape"></path>
                    <path d="M133.318596,19.436241 C133.319199,22.7758923 133.323416,26.1157441 133.317391,29.4553954 C133.313977,31.3105344 132.339333,32.3058917 130.499298,32.3530222 C130.165111,32.3616461 129.830523,32.3566322 129.495934,32.3546267 C127.353042,32.3423928 126.439251,31.4422994 126.437443,29.3077865 C126.432222,23.2293484 126.437242,17.1509103 126.434632,11.0726728 C126.433427,8.38402488 125.242284,7.14940481 122.54228,7.09224648 C120.837406,7.05614648 119.130925,7.10367814 117.425449,7.07941092 C115.369518,7.05012981 114.45432,6.10090032 114.442069,4.03417521 C114.439057,3.53358852 114.426203,3.03059516 114.464964,2.53241513 C114.568996,1.19852006 115.545648,0.189926121 116.865726,0.171475009 C119.507086,0.133971118 122.153668,0.068389448 124.790409,0.187318899 C129.23224,0.387673909 133.246497,4.77382414 133.309157,9.4170866 C133.354545,12.7561362 133.318194,16.0963892 133.318596,19.436241 L133.318596,19.436241 Z" id="Shape"></path>
                    <path d="M75.8545531,16.2153186 C75.8545531,20.5938477 75.8573648,24.9721763 75.8533481,29.3505048 C75.8513398,31.3295872 74.8789047,32.3209333 72.9203779,32.3536239 C72.4518337,32.3614456 71.9822854,32.3716739 71.5149462,32.3480083 C70.0737661,32.2754072 69.1541502,31.4362827 68.9559277,30.0099316 C68.9101377,29.6810204 68.9185727,29.3434854 68.9185727,29.0099615 C68.9167652,20.4871522 68.9165644,11.9643428 68.9177694,3.44153351 C68.9181711,1.06274394 69.8173019,0.153224452 72.1740812,0.159441675 C72.7749746,0.161046119 73.3907296,0.130160562 73.9731463,0.246482791 C75.118298,0.475517247 75.8501348,1.57997675 75.8519423,2.98045627 C75.8581681,7.39167594 75.8545531,11.8034973 75.8545531,16.2153186 L75.8545531,16.2153186 Z" id="Shape"></path>
                    <path d="M139.003586,0.155631119 C139.972004,0.155631119 140.940623,0.151419452 141.908841,0.156633897 C143.876807,0.167062786 144.804657,1.07858783 144.821527,3.01314682 C144.825142,3.41325518 144.825142,3.81336353 144.821727,4.21347188 C144.806062,6.0698142 143.871384,7.04411314 141.990379,7.07600148 C140.020806,7.10949426 138.049828,7.11129926 136.080055,7.07580092 C134.198648,7.04190703 133.342094,6.07041587 133.250514,4.19582299 C133.098081,1.07237061 133.892377,-0.0746066705 137.30092,0.150216119 C137.866266,0.18772001 138.43603,0.155631119 139.003586,0.155631119 L139.003586,0.155631119 Z" id="Shape"></path>
                </g>
            </g>
        </g>
    </g>
</svg>