<?xml version="1.0" encoding="UTF-8" standalone="no"?>
<svg width="140px" height="41px" viewBox="0 0 140 41" version="1.1" xmlns="http://www.w3.org/2000/svg" xmlns:xlink="http://www.w3.org/1999/xlink" xmlns:sketch="http://www.bohemiancoding.com/sketch/ns">
    <!-- Generator: Sketch 3.4.4 (17249) - http://www.bohemiancoding.com/sketch -->
    <title>logo-bbc</title>
    <desc>Created with Sketch.</desc>
    <defs></defs>
    <g id="Logos" stroke="none" stroke-width="1" fill="none" fill-rule="evenodd" sketch:type="MSPage">
        <g id="logo-bbc" sketch:type="MSLayerGroup" transform="translate(0.000000, 0.196721)" fill="#000000">
            <path d="M75.8274709,14.211625 C75.8274709,9.8911151 70.4508363,10.1472733 70.4508363,10.1472733 L65.0742017,10.1472733 L65.0742017,17.956067 L70.4508363,17.956067 C75.9876178,17.9879427 75.8274709,14.211625 75.8274709,14.211625 L75.8274709,14.211625 Z M65.0742017,29.8614722 L69.1708132,29.8614722 C73.4271876,29.6371897 73.2670407,26.4691998 73.2670407,26.4691998 C73.2670407,22.5327352 68.5624854,22.4685996 68.5624854,22.4685996 L65.0742017,22.4685996 L65.0742017,29.8614722 L65.0742017,29.8614722 Z M74.8354818,20.9324183 C74.8354818,20.9324183 78.5157882,22.5004754 78.4839124,26.6612224 C78.4839124,26.6612224 79.0434664,33.477643 70.0107203,34.3098692 L59.9856011,34.3098692 L59.9856011,5.73075206 L71.4750852,5.73075206 C71.4750852,5.73075206 81.0762184,5.69849225 81.0762184,13.7957039 C81.0762184,13.7957039 81.3001168,19.3002256 74.8354818,20.9324183 L74.8354818,20.9324183 Z M48.8951401,39.9102486 L91.0932727,39.9102486 L91.0932727,0.14465914 L48.8951401,0.14465914 L48.8951401,39.9102486 L48.8951401,39.9102486 Z" id="Shape" sketch:type="MSShapeGroup" transform="translate(69.994206, 20.027454) scale(1, -1) translate(-69.994206, -20.027454) "></path>
            <path d="M27.1656445,14.211625 C27.1656445,9.8911151 21.7890099,10.1472733 21.7890099,10.1472733 L16.4123753,10.1472733 L16.4123753,17.956067 L21.7890099,17.956067 C27.3257914,17.9879427 27.1656445,14.211625 27.1656445,14.211625 L27.1656445,14.211625 Z M16.4123753,29.8614722 L20.5089868,29.8614722 C24.7653612,29.6371897 24.6052143,26.4691998 24.6052143,26.4691998 C24.6052143,22.5327352 19.900659,22.4685996 19.900659,22.4685996 L16.4123753,22.4685996 L16.4123753,29.8614722 L16.4123753,29.8614722 Z M26.1736554,20.9324183 C26.1736554,20.9324183 29.8539617,22.5004754 29.822086,26.6612224 C29.822086,26.6612224 30.38164,33.477643 21.3488939,34.3098692 L11.3237747,34.3098692 L11.3237747,5.73075206 L22.8132587,5.73075206 C22.8132587,5.73075206 32.414392,5.69849225 32.414392,13.7957039 C32.414392,13.7957039 32.6382904,19.3002256 26.1736554,20.9324183 L26.1736554,20.9324183 Z M0.233313682,39.9102486 L42.4314462,39.9102486 L42.4314462,0.14465914 L0.233313682,0.14465914 L0.233313682,39.9102486 L0.233313682,39.9102486 Z" id="Shape" sketch:type="MSShapeGroup" transform="translate(21.332380, 20.027454) scale(1, -1) translate(-21.332380, -20.027454) "></path>
            <path d="M131.145917,32.261218 L131.145917,26.9805947 C131.145917,26.9805947 125.993181,30.1489687 120.296636,30.2131043 C120.296636,30.2131043 109.671638,30.4204887 109.191582,20.0274541 C109.191582,20.0274541 108.807536,10.4666456 120.168749,9.9224534 C120.168749,9.9224534 124.93744,9.34638541 131.402075,13.4748727 L131.402075,8.00222676 C131.402075,8.00222676 122.729179,2.84987464 112.679865,6.81821501 C112.679865,6.81821501 104.230868,9.90593945 103.910574,20.0274541 C103.910574,20.0274541 103.558405,30.4370027 114.82399,33.8934106 C114.82399,33.8934106 117.832601,35.0455466 123.241112,34.5336142 C123.241112,34.5336142 126.473237,34.2133204 131.145917,32.261218 L131.145917,32.261218 Z M97.5569283,0.144659345 L139.755061,0.144659345 L139.755061,39.9102488 L97.5569283,39.9102488 L97.5569283,0.144659345 L97.5569283,0.144659345 Z" id="Shape" sketch:type="MSShapeGroup" transform="translate(118.655995, 20.027454) scale(1, -1) translate(-118.655995, -20.027454) "></path>
        </g>
    </g>
</svg>