<?xml version="1.0" encoding="UTF-8" standalone="no"?>
<svg width="160px" height="37px" viewBox="0 0 160 37" version="1.1" xmlns="http://www.w3.org/2000/svg" xmlns:xlink="http://www.w3.org/1999/xlink" xmlns:sketch="http://www.bohemiancoding.com/sketch/ns">
    <!-- Generator: Sketch 3.4.4 (17249) - http://www.bohemiancoding.com/sketch -->
    <title>logo-financial-times</title>
    <desc>Created with Sketch.</desc>
    <defs></defs>
    <g id="Logos" stroke="none" stroke-width="1" fill="none" fill-rule="evenodd" sketch:type="MSPage">
        <g id="logo-financial-times" sketch:type="MSLayerGroup">
            <g id="FT-Pink-+-FT" sketch:type="MSShapeGroup">
                <path d="M0.0963147541,35.613074 L35.5583767,35.613074 L35.5583767,0.152993807 L0.0963147541,0.152993807 L0.0963147541,35.613074 L0.0963147541,35.613074 L0.0963147541,35.613074 Z" id="FT-Pink" fill="#FCD0AF"></path>
                <path d="M9.16635046,7.73094353 C9.16635046,6.05633515 9.61304481,5.87004736 11.5211075,5.7987031 L11.5211075,5.18633151 L3.93701421,5.18633151 L3.93701421,5.7987031 C5.5147133,5.87004736 5.96220036,6.05633515 5.96220036,7.73094353 L5.96220036,18.6585064 C5.96220036,20.3331148 5.5147133,20.5213843 3.98418069,20.5907468 L3.98418069,21.2031184 L17.3620226,21.2031184 L17.4572474,17.6715774 L16.7975111,17.6715774 C16.2325042,19.4611293 15.6193399,20.0259381 12.4867322,20.0259381 L10.0594419,20.0259381 C9.33113588,20.0259381 9.16625137,19.8614499 9.16625137,19.2015155 L9.16625137,14.1360729 L10.3614659,14.1360729 C12.8587133,14.1360729 13.4007315,14.5859381 13.7065209,16.2585647 L14.3188925,16.2585647 L14.3188925,10.6045319 L13.7065209,10.6045319 C13.3775446,12.4892095 12.4346113,12.9588925 10.3614659,12.9588925 L9.16625137,12.9588925 L9.16625137,7.73094353 L9.16635046,7.73094353 Z M32.5117785,21.2031184 L18.4728131,21.2031184 L18.1469086,17.6695956 L18.9522069,17.6695956 C19.4660838,19.399694 20.2217384,20.0259381 21.9116066,20.0259381 L23.8904189,20.0259381 L23.8904189,7.73094353 C23.8904189,6.05633515 23.4429319,5.87004736 21.6297967,5.7987031 L21.6297967,5.18633151 L29.3557858,5.18633151 L29.3557858,5.7987031 C27.5418579,5.87004736 27.094569,6.05633515 27.094569,7.73094353 L27.094569,20.0259381 L29.0723905,20.0259381 C30.7630514,20.0259381 31.5194987,19.399694 32.0325829,17.6695956 L32.8369894,17.6695956 L32.5117785,21.2031184 L32.5117785,21.2031184 Z" id="FT" fill="#3E474F" transform="translate(18.387002, 13.194725) scale(1, -1) translate(-18.387002, -13.194725) "></path>
            </g>
            <path d="M46.4118033,24.3672131 C46.4118033,22.9508197 46.7934426,22.7934426 48.4072131,22.7278689 L48.4072131,22.2229508 L41.9829508,22.2229508 L41.9829508,22.7278689 C43.317377,22.7934426 43.6990164,22.9508197 43.6990164,24.3672131 L43.6990164,33.6262295 C43.6990164,35.0491803 43.317377,35.2065574 42.0183607,35.2655738 L42.0183607,35.7836066 L53.3606557,35.7836066 L53.437377,32.7934426 L52.8793443,32.7934426 C52.4,34.3081967 51.882623,34.7868852 49.2268852,34.7868852 L47.1698361,34.7868852 C46.5521311,34.7868852 46.4118033,34.6491803 46.4118033,34.0852459 L46.4118033,29.7967213 L48.7298361,29.7967213 C50.8452459,29.7967213 51.3036066,30.1770492 51.562623,31.5934426 L52.082623,31.5934426 L52.082623,26.8 L51.562623,26.8 C51.2832787,28.4 50.4839344,28.8 48.7298361,28.8 L46.4118033,28.8 L46.4118033,24.3672131 L46.4118033,24.3672131 Z M59.787541,24.3672131 C59.787541,22.9508197 60.1639344,22.7934426 61.7829508,22.7278689 L61.7829508,22.2229508 L55.0740984,22.2229508 L55.0740984,22.7278689 C56.6957377,22.7934426 57.0695082,22.9508197 57.0695082,24.3672131 L57.0695082,33.6262295 C57.0695082,35.0491803 56.6957377,35.2065574 55.0740984,35.2655738 L55.0740984,35.7836066 L61.7829508,35.7836066 L61.7829508,35.2655738 C60.1639344,35.2065574 59.787541,35.0491803 59.787541,33.6262295 L59.787541,24.3672131 L59.787541,24.3672131 Z M75.7763934,33.2459016 C75.7763934,34.5639344 75.415082,35.1016393 73.9370492,35.2655738 L73.9370492,35.7836066 L78.7272131,35.7836066 L78.7272131,35.2655738 C77.2518033,35.1016393 76.8931148,34.5639344 76.8931148,33.2459016 L76.8931148,21.8885246 L76.2144262,21.8885246 L66.9547541,32.5901639 L66.9547541,24.747541 C66.9547541,23.4295082 67.3108197,22.8918033 68.7888525,22.7278689 L68.7888525,22.2229508 L63.9960656,22.2229508 L63.9960656,22.7278689 C65.4740984,22.8918033 65.8327869,23.4295082 65.8327869,24.747541 L65.8327869,33.8819672 C65.3744262,34.6885246 64.8334426,35.0688525 63.9960656,35.2655738 L63.9960656,35.7836066 L67.6898361,35.7836066 L75.7763934,26.4393443 L75.7763934,33.2459016 L75.7763934,33.2459016 Z M83.0203279,27.0819672 L85.0563934,32.452459 L87.0747541,27.0819672 L83.0203279,27.0819672 L83.0203279,27.0819672 Z M92.7409836,22.2229508 L92.7409836,22.7278689 C91.7239344,22.7081967 91.4655738,23.147541 90.9459016,24.4262295 L86.1734426,36.104918 L85.5177049,36.104918 L80.5459016,24.0065574 C80.2055738,23.1672131 79.7465574,22.9114754 78.8888525,22.7278689 L78.8888525,22.2229508 L83.1996721,22.2229508 L83.1996721,22.7278689 C82.2619672,22.7278689 81.8036066,22.9311475 81.8036066,23.5868852 C81.8036066,24.1442623 82.4239344,25.6459016 82.58,26.0852459 L87.4927869,26.0852459 C87.6514754,25.6459016 88.3098361,24.1442623 88.3098361,23.5868852 C88.3098361,22.9311475 87.8127869,22.7278689 86.8731148,22.7278689 L86.8731148,22.2229508 L92.7409836,22.2229508 L92.7409836,22.2229508 Z M105.896393,33.2459016 C105.896393,34.5639344 105.538361,35.1016393 104.062623,35.2655738 L104.062623,35.7836066 L108.852459,35.7836066 L108.852459,35.2655738 C107.374426,35.1016393 107.01377,34.5639344 107.01377,33.2459016 L107.01377,21.8885246 L106.337049,21.8885246 L97.0740984,32.5901639 L97.0744262,24.747541 C97.0744262,23.4295082 97.4331344,22.8918033 98.9111475,22.7278689 L98.9111475,22.2229508 L94.1183607,22.2229508 L94.1183607,22.7278689 C95.5963934,22.8918033 95.9577049,23.4295082 95.9577049,24.747541 L95.9577049,33.8819672 C95.4967213,34.6885246 94.9563934,35.0688525 94.1183607,35.2655738 L94.1183607,35.7836066 L97.8121311,35.7836066 L105.896066,26.4393443 L105.896721,33.2459016 L105.896393,33.2459016 Z M123.03541,25.4098361 C121.616393,22.9901639 119.759344,21.8885246 116.944262,21.8885246 C112.533115,21.8885246 109.918033,24.7868852 109.918033,29.1213115 C109.918033,32.2098361 112.354098,36.104918 117.085246,36.104918 C118.501639,36.104918 120.514754,35.304918 120.817049,35.304918 C121.214426,35.304918 121.334426,35.5213115 121.657705,36.104918 L122.33377,36.104918 L122.615082,31.5737705 L122.015738,31.5737705 C121.214426,33.6721311 119.800656,35.1868852 117.423607,35.1868852 C114.228852,35.1868852 112.833443,31.7311475 112.833443,29.1213115 C112.833443,25.4622951 114.408525,23.0098361 117.784262,23.0098361 C120.417705,23.0098361 121.87541,24.9639344 122.495082,25.8229508 L123.03541,25.4098361 L123.03541,25.4098361 Z M129.608525,24.3672131 C129.608525,22.9508197 129.990164,22.7934426 131.605902,22.7278689 L131.605902,22.2229508 L124.897705,22.2229508 L124.897705,22.7278689 C126.516721,22.7934426 126.895738,22.9508197 126.895738,24.3672131 L126.895738,33.6262295 C126.895738,35.0491803 126.516721,35.2065574 124.897705,35.2655738 L124.897705,35.7836066 L131.605902,35.7836066 L131.605902,35.2655738 C129.990164,35.2065574 129.608525,35.0491803 129.608525,33.6262295 L129.608525,24.3672131 L129.608525,24.3672131 Z M137.16459,27.0819672 L139.200656,32.452459 L141.217049,27.0819672 L137.16459,27.0819672 L137.16459,27.0819672 Z M146.887869,22.2229508 L146.887869,22.7278689 C145.868197,22.7081967 145.609836,23.147541 145.092459,24.4262295 L140.32,36.104918 L139.662295,36.104918 L134.690492,24.0065574 C134.349508,23.1672131 133.891148,22.9114754 133.032787,22.7278689 L133.032787,22.2229508 L137.343607,22.2229508 L137.343607,22.7278689 C136.406557,22.7278689 135.948197,22.9311475 135.948197,23.5868852 C135.948197,24.1442623 136.567869,25.6459016 136.726557,26.0852459 L141.636721,26.0852459 C141.79541,25.6459016 142.45377,24.1442623 142.45377,23.5868852 C142.45377,22.9311475 141.954754,22.7278689 141.017049,22.7278689 L141.017049,22.2229508 L146.887869,22.2229508 L146.887869,22.2229508 Z M148.074098,22.2229508 L148.074098,22.7278689 C149.372459,22.7868852 149.751475,22.9508197 149.751475,24.3672131 L149.751475,33.6262295 C149.751475,35.0491803 149.372459,35.2065574 148.074098,35.2655738 L148.074098,35.7836066 L154.341639,35.7836066 L154.341639,35.2655738 C152.845902,35.2065574 152.464262,35.0491803 152.464262,33.6262295 L152.464262,24.104918 C152.464262,23.2852459 152.704918,23.0098361 154.221639,23.0098361 C156.657705,23.0098361 158.094426,23.4491803 159.252459,25.842623 L159.772459,25.842623 L158.855082,22.2229508 L148.074098,22.2229508 L148.074098,22.2229508 Z M44.9593443,0.832786885 C46.5009836,0.898360656 46.877377,1.0557377 46.877377,2.47213115 L46.877377,12.8918033 L45.202623,12.8918033 C43.624918,12.8918033 43.0045902,12.2557377 42.5665574,10.4196721 L41.9672131,10.4196721 L42.2872131,13.8885246 L54.1829508,13.8885246 L54.5029508,10.4196721 L53.9009836,10.4196721 C53.4655738,12.2557377 52.8459016,12.8918033 51.2708197,12.8918033 L49.5927869,12.8918033 L49.5927869,2.47213115 C49.5927869,1.0557377 49.9718033,0.898360656 51.5062295,0.832786885 L51.5062295,0.327868852 L44.9593443,0.327868852 L44.9593443,0.832786885 L44.9593443,0.832786885 Z M60.6098361,2.47213115 C60.6098361,1.0557377 60.9914754,0.898360656 62.6078689,0.839344262 L62.6078689,0.327868852 L55.8990164,0.327868852 L55.8990164,0.839344262 C57.5206557,0.898360656 57.8970492,1.0557377 57.8970492,2.47213115 L57.8970492,11.7377049 C57.8970492,13.1540984 57.5206557,13.3114754 55.8990164,13.3704918 L55.8990164,13.895082 L62.6078689,13.895082 L62.6078689,13.3704918 C60.9914754,13.3114754 60.6098361,13.1540984 60.6098361,11.7377049 L60.6098361,2.47213115 L60.6098361,2.47213115 Z M76.8570492,13.8885246 L81.5291803,13.8885246 L81.5291803,13.3704918 C80.2308197,13.3114754 79.8544262,13.1540984 79.8544262,11.7377049 L79.8544262,2.47213115 C79.8544262,1.0557377 80.2308197,0.898360656 81.5291803,0.832786885 L81.5291803,0.327868852 L75.4203279,0.327868852 L75.4203279,0.832786885 C76.757377,0.898360656 77.1390164,1.0557377 77.1390164,2.47213115 L77.1390164,12.0131148 L77.0977049,12.0131148 L72.5665574,0.157377049 L71.9468852,0.157377049 L67.5180328,12.0131148 L67.477377,12.0131148 L67.477377,2.85245902 C67.477377,1.53442623 67.8354098,0.996721311 69.3134426,0.832786885 L69.3134426,0.327868852 L64.5239344,0.327868852 L64.5239344,0.832786885 C65.9993443,0.996721311 66.3580328,1.53442623 66.3580328,2.85245902 L66.3580328,12.0721311 C66.3580328,13.0098361 65.9606557,13.3704918 64.5239344,13.3704918 L64.5239344,13.8885246 L69.4544262,13.8885246 L73.0662295,4.47213115 L76.8570492,13.8885246 L76.8570492,13.8885246 Z M83.4557377,0.327868852 L83.4557377,0.832786885 C84.7514754,0.898360656 85.1304918,1.0557377 85.1304918,2.47213115 L85.1304918,11.7377049 C85.1304918,13.1540984 84.7514754,13.3114754 83.4557377,13.3704918 L83.4557377,13.8885246 L94.7921311,13.8885246 L94.8718033,10.8983607 L94.3157377,10.8983607 C93.8344262,12.4131148 93.3144262,12.8918033 90.6609836,12.8918033 L88.6065574,12.8918033 C87.9842623,12.8918033 87.8485246,12.7540984 87.8485246,12.1967213 L87.8485246,7.90163934 L90.1613115,7.90163934 C92.2770492,7.90163934 92.7354098,8.28196721 92.9970492,9.69836066 L93.5163934,9.69836066 L93.5163934,4.91147541 L92.9970492,4.91147541 C92.715082,6.50491803 91.9183607,6.90491803 90.1613115,6.90491803 L87.8485246,6.90491803 L87.8485246,2.20983607 C87.8485246,1.39672131 88.0865574,1.1147541 90.4819672,1.1147541 C92.915082,1.1147541 94.3544262,1.55409836 95.5118033,3.95409836 L96.0298361,3.95409836 L95.112459,0.327868852 L83.4560656,0.327868852 L83.4557377,0.327868852 Z M97.7947541,4.59016393 L98.317377,4.59016393 C98.8937508,2.79344262 100.612459,0.918032787 102.610492,0.918032787 C104.323934,0.918032787 104.943934,2.11147541 104.943934,3.17377049 C104.943934,6.28852459 97.9177049,6.86557377 97.9177049,10.7344262 C97.9173967,12.6098361 99.7337705,14.2098361 101.808525,14.2098361 C103.84459,14.2098361 104.562295,13.495082 105.463934,13.495082 C105.842951,13.495082 106.081639,13.7901639 106.181311,14.2098361 L106.701311,14.2098361 L106.701311,9.90163934 L106.181311,9.90163934 C105.622623,11.8557377 104.226885,13.2918033 102.387541,13.2918033 C100.873443,13.2918033 100.310164,12.3147541 100.310164,11.3901639 C100.310164,8.62295082 107.339672,8.53770492 107.339672,3.7704918 C107.339016,1.63934426 105.584262,0 103.145246,0 C100.750492,0 100.132787,0.832786885 99.1931148,0.832786885 C98.8370492,0.832786885 98.5937705,0.596721311 98.5163934,0.157377049 L97.7944262,0.157377049 L97.7944459,4.59016393 L97.7947541,4.59016393 Z" id="FinancialTimes" fill="#3E474F" sketch:type="MSShapeGroup" transform="translate(100.869836, 18.052459) scale(1, -1) translate(-100.869836, -18.052459) "></path>
        </g>
    </g>
</svg>