<?xml version="1.0" encoding="UTF-8" standalone="no"?>
<svg width="140px" height="37px" viewBox="0 0 140 37" version="1.1" xmlns="http://www.w3.org/2000/svg" xmlns:xlink="http://www.w3.org/1999/xlink" xmlns:sketch="http://www.bohemiancoding.com/sketch/ns">
    <!-- Generator: Sketch 3.4.4 (17249) - http://www.bohemiancoding.com/sketch -->
    <title>logo-forbes</title>
    <desc>Created with Sketch.</desc>
    <defs></defs>
    <g id="Logos" stroke="none" stroke-width="1" fill="none" fill-rule="evenodd" sketch:type="MSPage">
        <path d="M34.7843874,36.5262652 C32.3438573,36.1708669 30.2092855,35.1378351 28.5792281,33.5232617 C27.2195535,32.1765044 26.337993,30.6954103 25.6881478,28.6660091 C24.673578,25.4976093 24.6732217,21.4240356 25.6872419,18.3202557 C26.6699491,15.3123213 28.8825906,12.6940513 31.5906128,11.3346605 C35.3408269,9.4521032 40.6191234,9.57035827 44.0924337,11.6147519 C47.2183031,13.4546412 49.1118094,16.7238717 49.6385815,21.1904473 C49.7994234,22.5542506 49.695066,25.4347647 49.4417353,26.6238365 C48.4048928,31.4905189 45.3851623,34.890175 40.9610306,36.1715342 C40.4842953,36.3096102 39.745019,36.4711546 39.3181938,36.5305197 C38.4149947,36.6561433 35.6584998,36.6535566 34.7843864,36.5262622 L34.7843874,36.5262652 Z M40.4967487,32.6390078 C41.4647288,30.7880863 41.896977,28.0510711 41.907668,23.705002 C41.9210664,18.2582577 41.0672389,14.7922927 39.2649945,12.9775305 C38.5081639,12.215443 37.971511,11.9787658 37.0038802,11.9803228 C34.8563497,11.9837751 33.4933345,14.2256906 32.9548126,18.6403069 C32.7072783,20.6694998 32.7059779,25.5038103 32.9524876,27.278058 C33.7153501,32.7687228 35.6849293,35.3887582 38.4355503,34.5719123 C39.1485562,34.360172 40.0278541,33.5356033 40.4967487,32.6390078 Z M78.0113041,36.5249759 C77.0128121,36.4237467 73.9615139,35.9159571 72.8956552,35.6736415 L72.158259,35.5060007 L72.215761,31.5681659 C72.3542044,22.0874323 72.3716177,16.9119131 72.2820085,11.87869 C72.1942271,6.94808846 72.1686279,6.42676651 71.97849,5.69742124 C71.7375674,4.77327799 71.3898345,4.12864333 70.9716048,3.83083667 C70.8091304,3.71514514 70.367705,3.55118918 69.990661,3.46649164 C68.7374001,3.18496503 68.8054774,3.23010833 68.7720185,2.65837408 C68.7527451,2.32903695 68.7884294,2.11146804 68.8726679,2.04470826 C68.9855996,1.95521075 79.2647251,-0.00549525642 79.5921247,1.15779334e-05 C79.6862028,0.00159378728 79.6995288,1.3159236 79.6513308,5.83972247 C79.617123,9.05044037 79.6127287,11.6773911 79.6415678,11.6773911 C79.6704038,11.6773911 80.0460065,11.5147526 80.4762397,11.315973 C81.7730939,10.7167896 82.9684009,10.4567999 84.7044955,10.3962905 C85.8603751,10.3560035 86.39579,10.3812323 86.9888226,10.5039301 C90.8661279,11.3061365 93.7354247,14.4797439 94.738147,19.0751267 C94.9997249,20.2739121 95.0970408,23.2531916 94.9233661,24.745484 C94.775341,26.0173873 94.3530249,27.7311145 93.9135511,28.8432397 C92.2552404,33.0397356 88.6972567,35.7775238 83.977282,36.4889766 C82.8900534,36.6528571 79.4758907,36.673458 78.0113061,36.5249759 L78.0113041,36.5249759 Z M82.0451897,34.5233198 C82.7763859,34.384651 83.3444293,34.0936553 83.9543087,33.545322 C85.482847,32.1710341 86.6320656,29.3338555 87.0840531,25.8186408 C87.268146,24.3869002 87.243352,21.1244826 87.0392953,19.9294504 C86.4874192,16.6974562 85.3014615,14.5732573 83.5713597,13.7179392 C82.8536777,13.3631347 82.7430055,13.3381072 81.8917576,13.3381072 C81.2829461,13.3381072 80.7592096,13.4032888 80.3138881,13.5344814 L79.6473118,13.7308545 L79.5980842,17.4094858 C79.5350243,22.1217377 79.6883325,33.9190073 79.817028,34.2575015 C79.8991559,34.4735164 79.9895784,34.5193159 80.3970688,34.5512973 C81.3562552,34.6265781 81.514912,34.6238847 82.0451897,34.5233198 L82.0451897,34.5233198 Z M106.948027,36.4751595 C101.954747,35.5745078 98.383742,32.033553 97.2169027,26.8258994 C97.0668243,26.1560953 97.000456,25.4066443 96.9628232,23.9566257 C96.903279,21.6626151 97.089863,20.2387945 97.6818529,18.4696608 C98.8185477,15.0727001 100.855745,12.6655836 103.81496,11.2228772 C106.938415,9.70010046 111.208791,9.60036388 113.973017,10.9856303 C117.08525,12.5453005 118.916567,15.6594965 119.381145,20.1822708 C119.443688,20.7912001 119.479942,21.5158762 119.461715,21.7926622 L119.428561,22.2959095 L111.9805,22.3216949 L104.53244,22.3474793 L104.560833,23.2275401 C104.626597,25.2660853 105.064866,27.0691792 105.875637,28.6368258 C106.244155,29.3493656 106.537438,29.7378373 107.249975,30.4572364 C108.859622,32.082378 110.460915,32.7116083 112.986995,32.7116083 C114.818564,32.7116083 116.135703,32.3461028 117.513181,31.4555945 C117.899001,31.2061661 118.289933,31.0020882 118.381917,31.0020882 C118.592184,31.0020882 119.076287,31.6253067 119.076287,31.8959923 C119.076287,32.3395173 117.632219,33.7697522 116.223721,34.7212359 C115.070147,35.5005083 113.240692,36.2061083 111.654315,36.4836009 C110.543286,36.677945 108.047471,36.6734681 106.948027,36.4751564 L106.948027,36.4751595 Z M110.108279,20.0693341 L111.859429,20.0084129 L111.796392,18.7645416 C111.574078,14.3782711 110.500712,11.981286 108.759717,11.9832054 C106.867588,11.9852889 105.355541,14.4178546 104.726875,18.4712299 C104.649596,18.9694448 104.585563,19.5602571 104.584566,19.7841458 L104.582755,20.1912165 L106.469932,20.1607358 C107.50788,20.1439717 109.145134,20.1028413 110.108269,20.0693341 L110.108279,20.0693341 Z M127.07792,36.5727623 C125.284719,36.380554 122.430904,35.7557563 121.480703,35.3473389 L121.016598,35.1478598 L120.953309,32.8485127 C120.918505,31.5838713 120.878356,29.8929834 120.864094,29.0909833 L120.838156,27.6328021 L121.116311,27.4994879 C121.269288,27.4261647 121.578051,27.3576707 121.802429,27.3472777 L122.210401,27.3283828 L122.557984,28.18387 C123.914024,31.5214294 125.504386,33.3209854 127.58162,33.8683081 C128.374033,34.0770984 129.85975,34.0789343 130.446376,33.871851 C132.089619,33.2917699 132.990714,32.0475583 132.998554,30.3478707 C133.007814,28.3349166 131.901374,27.3677307 127.721322,25.7349145 C125.131611,24.72332 124.228232,24.2026372 123.152591,23.1016286 C121.992253,21.9139227 121.43533,20.5619598 121.330775,18.6790449 C121.20443,16.4037249 121.916575,14.4855997 123.494547,12.8510434 C125.082534,11.2061161 127.144067,10.3145963 129.952358,10.058327 C132.425366,9.83265379 136.22138,10.357157 138.210254,11.1993373 L138.573105,11.3529828 L138.637813,13.4023669 C138.673402,14.5295272 138.71021,16.0405142 138.719611,16.7601155 L138.736701,18.0684801 L138.249417,18.2494045 C137.478985,18.5354614 137.428389,18.499611 136.999813,17.3640898 C135.798512,14.1811733 134.402775,12.6751111 132.227982,12.2150615 C130.902569,11.9346884 129.795425,12.2361083 128.990713,13.0964127 C128.362912,13.7675825 128.117971,14.3636075 128.058618,15.3644779 C127.994323,16.4489044 128.188124,17.0350567 128.850699,17.7600106 C129.667339,18.6535514 131.005272,19.4248645 133.67046,20.53859 C136.934844,21.9027083 138.492445,23.0608022 139.339199,24.753382 C139.889127,25.852618 140.044822,26.7306004 139.989505,28.4205583 C139.947987,29.688668 139.907405,29.9493381 139.618903,30.8007933 C138.678294,33.576774 136.554872,35.4043357 133.274565,36.2611485 C132.163466,36.5513672 132.004862,36.5663841 129.795455,36.5905742 C128.52224,36.6045142 127.299349,36.5965025 127.07792,36.5727663 L127.07792,36.5727623 Z M0.133781255,35.9679033 C0.050098774,35.9341364 0.00796942457,35.6832988 0.00796942457,35.2188206 C0.00796942457,34.3848734 -0.0451840607,34.4222123 1.56803612,34.122903 C2.80533468,33.8933407 3.24800078,33.6585879 3.79437982,32.9422365 C4.85374391,31.5533171 5.08271742,28.8790166 5.08509073,17.8673331 C5.08732012,7.52605694 4.8880996,5.35062143 3.79247664,3.7523321 C3.3063817,3.04321938 2.48720356,2.65817379 1.11511353,2.49386857 L0.0582941566,2.36731596 L0.0291470783,1.54226613 L0,0.717216305 L0.331095471,0.658216596 C0.513197929,0.625767209 6.91126958,0.612055732 14.549033,0.627745977 L28.4358761,0.656275068 L28.5009873,1.05887292 C28.5367983,1.28030175 28.5955746,3.55155051 28.6316011,6.10609228 L28.6971037,10.7507125 L27.9811016,10.9681918 C26.9033209,11.2955582 26.909842,11.299546 26.4250015,10.0166752 C25.2340868,6.8655569 23.868485,5.04983151 21.9998773,4.13295818 C20.7111062,3.5005947 20.1152191,3.42413533 16.4756419,3.42413533 L13.3081832,3.42413533 L13.2535818,3.95254502 C13.1511891,4.94344302 12.9895129,11.3176306 12.9906331,14.3194395 L12.9917503,17.3137611 L13.9227578,17.3084267 C14.434812,17.3054877 15.4445194,17.2678096 16.1665524,17.2246873 C17.2519633,17.159862 17.5744653,17.1022442 18.0285675,16.8920237 C19.144294,16.3755118 19.903346,15.2387174 20.3683727,13.387815 L20.6084488,12.4322621 L21.4299749,12.4030294 L22.251501,12.3737968 L22.251501,18.4209052 L22.251501,24.4680136 L21.4296599,24.4387809 L20.6078188,24.4095483 L20.3745415,23.4533784 C19.9362362,21.6568287 19.0927222,20.3706645 18.0503964,19.9095943 C17.5690272,19.6966623 16.3779244,19.5756414 14.073732,19.5055521 L12.9917503,19.4726397 L12.9917503,21.744433 C12.9917503,24.2200747 13.1278465,27.5691685 13.3023103,29.386776 C13.5455216,31.9206243 14.1930268,33.3208012 15.3558834,33.8274596 C15.5779332,33.9242079 16.2804715,34.0813559 16.9170794,34.176677 C17.5536873,34.2719991 18.1538097,34.3909194 18.2506848,34.4409452 C18.4963651,34.5678139 18.5108637,35.8801249 18.267615,35.9734682 C18.0772497,36.0465186 0.315101063,36.0410674 0.133781255,35.9679023 L0.133781255,35.9679033 Z M49.749,35.9488936 C49.6571976,35.8904012 49.6272011,35.6582753 49.6483505,35.1700308 L49.67848,34.4744947 L50.0307531,34.3994797 C50.2245033,34.3582214 50.6406627,34.276329 50.9555526,34.2174964 C51.930087,34.0354175 52.4901469,33.5064331 52.8052844,32.4704008 C53.0620241,31.6263504 53.1752014,28.9260954 53.1811095,23.5037031 C53.1883361,16.871922 53.0501817,15.3058063 52.3796237,14.4180186 C52.0161976,13.9368588 51.7542192,13.8000249 50.8723819,13.6307727 C50.4371646,13.5472407 49.9791702,13.4576788 49.8546165,13.4317465 C49.652918,13.3897525 49.6281552,13.3240385 49.6281552,12.8307846 C49.6281552,12.3511527 49.658489,12.2644985 49.8546165,12.1838481 C50.1558553,12.0599748 60.1266995,10.0669997 60.4451987,10.0669997 L60.6936761,10.0669997 L60.6449507,11.5515793 C60.6181507,12.368098 60.5753063,13.5570198 60.5497403,14.1936277 L60.5032564,15.3510965 L60.8644742,14.6996912 C62.0208208,12.6143873 63.3176187,11.3199194 65.0420228,10.529648 C65.988633,10.0958297 66.6202215,9.9663505 67.7897361,9.9663505 C69.1767088,9.9663505 70.5632438,10.4189034 70.5632438,10.8715995 C70.5632438,11.1759927 68.1196117,17.6327897 67.984838,17.6845064 C67.9190918,17.7097362 67.4419378,17.5272285 66.9244959,17.2789364 C65.8453726,16.761121 64.8329598,16.5079172 63.8501852,16.510053 C62.6263431,16.5127101 61.2592355,16.963504 60.7194665,17.5423803 C60.4885837,17.7899901 60.4874967,17.8048781 60.4301335,21.502834 C60.3733259,25.1649578 60.4953705,29.6319742 60.7013164,31.4285822 C60.8767635,32.9591345 61.2834377,33.7126709 62.1233625,34.0635258 C62.4035706,34.1805751 64.1764213,34.4234755 64.7549705,34.4240854 C64.7988175,34.4241317 64.8214636,34.775185 64.8052953,35.2042033 L64.7758996,35.9842367 L57.3278392,36.0082285 C53.231406,36.0214236 49.8209281,35.9947233 49.749,35.9488936 L49.749,35.9488936 Z" id="logo-forbes" fill="#33629A" sketch:type="MSShapeGroup"></path>
    </g>
</svg>