<?xml version="1.0" standalone="no"?>
<!DOCTYPE svg PUBLIC "-//W3C//DTD SVG 20010904//EN"
 "http://www.w3.org/TR/2001/REC-SVG-20010904/DTD/svg10.dtd">
<svg version="1.0" xmlns="http://www.w3.org/2000/svg"
 width="259.000000pt" height="259.000000pt" viewBox="0 0 259.000000 259.000000"
 preserveAspectRatio="xMidYMid meet">
<metadata>
Created by potrace 1.11, written by Peter Selinger 2001-2013
</metadata>
<g transform="translate(0.000000,259.000000) scale(0.100000,-0.100000)"
fill="#000000" stroke="none">
<path d="M1157 2579 c-438 -72 -753 -447 -746 -889 3 -241 95 -452 269 -620
220 -213 552 -301 752 -199 77 40 149 122 154 178 1 14 5 53 8 86 l6 60 -15
-55 c-21 -72 -59 -119 -122 -150 -28 -14 -60 -33 -70 -41 -38 -34 -175 -53
-262 -37 -198 35 -382 156 -500 328 -140 202 -177 423 -117 687 11 49 66 166
109 230 56 84 155 180 242 233 180 111 376 145 595 105 269 -50 526 -287 604
-557 26 -86 27 -96 31 -208 10 -287 -125 -544 -368 -703 -53 -35 -85 -63 -102
-93 -14 -23 -25 -45 -25 -48 0 -14 107 37 182 87 188 125 334 339 372 543 38
203 17 389 -63 560 -125 266 -339 432 -646 500 -39 9 -241 11 -288 3z m406
-1563 c-17 -24 -82 -66 -99 -66 -5 1 8 10 28 21 21 10 47 33 60 49 12 16 23
28 26 26 2 -3 -4 -16 -15 -30z m-116 -72 c-3 -3 -12 -4 -19 -1 -8 3 -5 6 6 6
11 1 17 -2 13 -5z"/>
<path d="M1132 2380 c-120 -29 -235 -92 -317 -174 -133 -133 -195 -274 -201
-456 -5 -153 24 -259 103 -383 156 -245 437 -359 726 -293 67 15 79 21 92 46
22 43 18 117 -10 175 -13 27 -23 49 -22 50 1 0 10 6 19 13 14 12 20 7 43 -32
31 -54 45 -98 47 -148 l0 -38 31 18 c59 32 191 174 227 242 80 149 104 326 66
482 -52 219 -211 398 -421 474 -88 32 -106 35 -215 39 -66 2 -117 -2 -168 -15z
m16 -297 c38 -25 54 -46 107 -140 l47 -83 172 6 173 5 16 -25 c9 -14 13 -27 9
-29 -4 -2 -71 -26 -149 -51 -79 -26 -143 -49 -143 -51 0 -2 26 -55 58 -117 52
-103 60 -113 87 -116 17 -2 39 -5 50 -7 11 -2 31 -4 44 -4 35 -1 18 -13 -52
-37 -37 -12 -62 -27 -62 -35 0 -8 -8 -13 -18 -11 -10 2 -43 -19 -74 -45 -31
-26 -54 -41 -51 -33 4 8 18 44 33 79 26 63 26 64 7 85 -10 11 -40 56 -67 99
-26 42 -50 79 -54 81 -4 3 -20 -7 -37 -22 -67 -63 -197 -172 -204 -172 -4 0
-12 11 -18 25 -10 22 -9 30 7 53 46 66 161 254 161 263 0 6 -15 37 -34 68 -53
89 -67 120 -72 163 -9 70 10 85 64 51z"/>
<path d="M1561 1154 c-1 -22 -21 -53 -81 -126 -35 -43 -35 -43 -6 -24 60 38
104 111 93 153 -4 15 -5 14 -6 -3z"/>
<path d="M941 747 c-48 -12 -70 -49 -67 -114 1 -47 6 -59 29 -79 l28 -24 385
0 c429 0 442 2 463 60 22 65 9 129 -31 151 -17 10 -115 13 -400 14 -208 0
-391 -3 -407 -8z"/>
<path d="M900 458 c-16 -9 -32 -28 -35 -40 -19 -85 -8 -130 37 -151 28 -12 95
-14 418 -13 403 2 417 4 440 47 15 28 14 112 -1 137 -8 12 -25 26 -39 31 -15
6 -183 9 -408 9 -349 -2 -385 -3 -412 -20z"/>
<path d="M1080 183 c0 -49 72 -132 138 -160 79 -33 206 -10 271 50 25 23 81
105 81 119 0 5 -110 8 -245 7 -202 -1 -245 -4 -245 -16z"/>
</g>
</svg>
