<?xml version="1.0" standalone="no"?>
<!DOCTYPE svg PUBLIC "-//W3C//DTD SVG 20010904//EN"
 "http://www.w3.org/TR/2001/REC-SVG-20010904/DTD/svg10.dtd">
<svg version="1.0" xmlns="http://www.w3.org/2000/svg"
 width="700.000000pt" height="700.000000pt" viewBox="0 0 700.000000 700.000000"
 preserveAspectRatio="xMidYMid meet">
<metadata>
Created by potrace 1.11, written by Peter Selinger 2001-2013
</metadata>
<g transform="translate(0.000000,700.000000) scale(0.100000,-0.100000)"
fill="#000000" stroke="none">
<path d="M3230 6715 c-58 -7 -131 -18 -161 -24 -31 -7 -69 -14 -85 -17 -16 -2
-54 -12 -84 -20 -30 -9 -66 -18 -79 -21 -51 -9 -271 -96 -386 -153 -320 -158
-580 -371 -839 -690 -92 -114 -253 -396 -315 -551 -44 -112 -102 -296 -117
-374 -47 -235 -56 -319 -56 -525 -1 -151 1 -184 22 -341 20 -158 91 -424 152
-569 82 -195 218 -426 345 -587 64 -81 224 -249 303 -317 132 -115 370 -273
505 -335 184 -86 212 -97 340 -137 111 -36 288 -77 380 -89 147 -19 207 -22
385 -20 107 2 204 5 215 8 11 3 49 8 85 12 36 4 68 9 71 11 4 2 22 6 40 9 19
2 44 7 57 10 12 3 30 7 40 9 605 139 1139 522 1486 1066 149 234 294 621 331
885 3 22 7 49 10 60 23 109 23 485 -1 635 -27 175 -53 288 -95 420 -232 720
-796 1292 -1513 1534 -146 50 -319 89 -486 111 -96 13 -446 13 -550 0z m475
-416 c86 -9 205 -30 255 -44 3 -1 23 -5 45 -10 59 -12 238 -78 337 -124 415
-193 763 -545 952 -961 40 -89 105 -267 112 -310 3 -14 11 -50 19 -80 8 -30
16 -68 19 -85 2 -16 8 -50 12 -75 12 -81 14 -103 15 -265 6 -777 -440 -1478
-1147 -1803 -80 -37 -244 -99 -283 -107 -9 -2 -47 -11 -86 -20 -94 -22 -101
-24 -165 -31 -30 -3 -59 -8 -63 -11 -15 -9 -339 -11 -417 -2 -131 14 -163 20
-265 44 -889 211 -1514 1000 -1517 1915 -1 131 4 215 17 281 3 13 7 41 11 64
11 77 43 203 78 303 196 571 640 1018 1206 1217 109 38 269 80 350 90 30 4 78
10 105 14 70 10 326 10 410 0z"/>
<path d="M4460 5383 c-140 -23 -375 -171 -551 -347 l-115 -114 -54 4 c-54 3
-121 10 -190 19 -19 2 -66 7 -105 10 -83 7 -145 13 -310 30 -22 2 -65 7 -95
10 -61 6 -112 11 -210 21 -36 4 -78 8 -95 10 -16 1 -66 5 -110 9 -44 3 -87 8
-95 10 -8 2 -51 7 -95 10 l-80 6 -78 -78 -78 -79 48 -21 c26 -11 194 -85 373
-163 179 -78 339 -148 355 -155 17 -8 93 -41 169 -75 77 -33 142 -63 144 -65
3 -3 -33 -43 -79 -89 -181 -180 -281 -300 -409 -489 -42 -62 -80 -111 -86
-111 -5 1 -74 5 -154 8 -80 4 -185 9 -234 12 l-90 5 -38 -38 -38 -37 122 -68
c67 -37 122 -68 123 -68 0 0 45 -25 100 -55 109 -60 100 -48 225 -280 78 -145
112 -205 119 -210 4 -2 23 11 41 30 36 37 36 39 26 220 -3 61 -9 155 -12 210
l-5 100 70 43 c67 41 242 168 306 222 17 13 94 88 172 164 l143 140 16 -40 c9
-21 26 -61 38 -89 13 -27 112 -255 221 -505 109 -250 200 -457 202 -459 8 -11
163 154 159 169 -3 8 -8 55 -11 104 -4 50 -8 97 -10 105 -1 9 -6 50 -9 91 -4
41 -9 91 -11 110 -2 19 -7 64 -10 100 -3 36 -8 80 -10 98 -2 18 -7 67 -11 109
-3 42 -7 84 -9 93 -2 9 -6 56 -10 106 -4 49 -9 96 -10 105 -2 8 -6 47 -10 85
-3 38 -8 83 -10 99 -2 17 -7 72 -11 123 l-7 93 125 127 c187 192 318 408 335
553 6 59 -22 83 -87 72z"/>
<path d="M2185 1790 c-110 -24 -182 -148 -149 -259 27 -94 62 -119 279 -204
283 -112 608 -188 906 -214 159 -14 651 -5 679 12 3 2 33 7 65 10 33 4 78 11
100 15 22 5 56 12 75 15 187 32 473 125 700 227 147 66 178 253 59 353 -80 67
-141 65 -324 -9 -142 -58 -242 -93 -350 -121 -82 -22 -92 -24 -155 -36 -30 -5
-75 -14 -100 -19 -116 -24 -255 -34 -460 -35 -167 0 -317 8 -374 20 -11 2 -41
7 -66 10 -61 7 -178 28 -215 39 -5 2 -23 6 -40 10 -131 34 -417 133 -450 156
-37 26 -127 41 -180 30z"/>
<path d="M2421 838 c-88 -24 -148 -95 -155 -185 -7 -81 34 -161 99 -197 30
-16 168 -61 215 -70 14 -3 75 -16 135 -30 61 -14 126 -27 145 -30 44 -7 218
-33 285 -42 76 -10 602 -13 670 -3 33 5 112 15 175 24 63 8 129 17 145 20 72
13 142 27 164 31 85 17 293 79 326 97 87 48 129 169 90 260 -33 78 -119 133
-199 128 -17 -1 -98 -19 -180 -41 -83 -22 -167 -42 -186 -45 -19 -3 -55 -10
-80 -15 -128 -28 -309 -43 -551 -45 -140 -2 -278 1 -305 5 -27 4 -76 11 -109
15 -85 9 -120 15 -200 31 -38 8 -86 17 -105 20 -19 3 -91 21 -160 40 -146 40
-173 44 -219 32z"/>
</g>
</svg>
