<?xml version="1.0" encoding="UTF-8" standalone="no"?>
<svg width="188px" height="41px" viewBox="0 0 188 41" version="1.1" xmlns="http://www.w3.org/2000/svg" xmlns:xlink="http://www.w3.org/1999/xlink" xmlns:sketch="http://www.bohemiancoding.com/sketch/ns">
    <!-- Generator: Sketch 3.4.4 (17249) - http://www.bohemiancoding.com/sketch -->
    <title>travelperk-logo</title>
    <desc>Created with Sketch.</desc>
    <defs></defs>
    <g id="Logos" stroke="none" stroke-width="1" fill="none" fill-rule="evenodd" sketch:type="MSPage">
        <g id="travelperk-logo" sketch:type="MSLayerGroup">
            <g id="Layer_1" sketch:type="MSShapeGroup">
                <g id="Group">
                    <g transform="translate(36.472000, 9.870370)" id="Shape" fill="#1396E4">
                        <g transform="translate(0.000000, 0.759259)">
                            <path d="M0.313208,3.2325463 L7.442544,3.2325463 L7.442544,21.7892222 L10.811504,21.7892222 L10.811504,3.2325463 L17.91076,3.2325463 L17.91076,0.2255 L0.313208,0.2255 L0.313208,3.2325463 Z"></path>
                            <path d="M54.711008,18.9647778 L50.228712,5.90513889 L46.54128,5.90513889 L52.55728,21.7892222 L56.658312,21.7892222 L62.674312,5.90513889 L59.253088,5.90513889 L54.711008,18.9647778 Z"></path>
                            <path d="M81.019728,18.4181111 C81.019728,19.5721852 81.34008,20.4635556 81.982288,21.0907037 C82.5602,21.6563519 83.343784,21.9646111 84.328528,22.0204167 L84.328528,17.1121852 L84.328528,7.82492593 L84.328528,0.2255 L81.019728,0.2255 L81.019728,18.4181111 L81.019728,18.4181111 Z"></path>
                            <path d="M78.237704,10.6581019 C78.159872,10.4523426 78.073016,10.253037 77.980896,10.0579074 C77.629336,9.26751852 77.168736,8.55988889 76.59496,7.93767593 C75.896728,7.18107407 75.054488,6.57480556 74.067488,6.11849074 C73.080488,5.66255556 71.978432,5.43439815 70.762072,5.43439815 C69.525408,5.43439815 68.408688,5.65724074 67.411912,6.10292593 C66.41476,6.54899074 65.561992,7.16019444 64.85436,7.93767593 C64.26404,8.5857037 63.786896,9.32142593 63.418416,10.1421852 C63.328928,10.3301019 63.243952,10.5214352 63.166872,10.718463 C62.775832,11.7206852 62.580312,12.7790926 62.580312,13.8921667 C62.580312,15.006 62.775832,16.0590926 63.166872,17.0506852 C63.235304,17.2241759 63.310128,17.3923519 63.388336,17.55825 C63.760576,18.3972315 64.248248,19.1454815 64.85436,19.8018611 C65.561992,20.5690926 66.414384,21.1757407 67.411912,21.6210463 C68.408688,22.0667315 69.515632,22.2895741 70.731992,22.2895741 C72.387144,22.2895741 73.837752,21.9008333 75.084192,21.1233519 C76.330256,20.3458704 77.22288,19.3459259 77.761312,18.1223796 L77.801168,18.022537 L74.973648,17.202537 C74.813096,17.5669815 74.592384,17.9010556 74.311888,18.2047593 C74.03064,18.508463 73.710288,18.7666111 73.349328,18.9792037 C72.988368,19.1917963 72.592064,19.3542778 72.161168,19.4651296 C71.729896,19.5767407 71.293736,19.6321667 70.852688,19.6321667 C70.251088,19.6321667 69.674304,19.5213148 69.123088,19.2980926 C68.571496,19.0756296 68.080064,18.7567407 67.649168,18.3414259 C67.217896,17.9268704 66.867088,17.4356296 66.596368,16.868463 C66.325648,16.3016759 66.160208,15.6638981 66.100048,14.9551296 L77.67408,14.9551296 L78.703944,14.9551296 C78.723872,14.8139074 78.7438,14.6362407 78.764104,14.4236481 C78.783656,14.2110556 78.794184,13.9832778 78.794184,13.7403148 C78.794184,12.6678611 78.60844,11.6405833 78.237704,10.6581019 L78.237704,10.6581019 Z M67.513808,9.35217593 C67.934928,8.95736111 68.421096,8.64872222 68.972688,8.42587963 C69.523904,8.20341667 70.110464,8.09180556 70.732368,8.09180556 C71.353896,8.09180556 71.94572,8.20341667 72.507088,8.42587963 C73.06808,8.64910185 73.559888,8.95736111 73.981008,9.35217593 C74.402128,9.74699074 74.748048,10.2279815 75.018768,10.7947685 C75.255648,11.2909444 75.412064,11.8258426 75.48764,12.399463 L66.03688,12.399463 C66.111328,11.8258426 66.26248,11.2913241 66.490712,10.7947685 C66.75128,10.2283611 67.092688,9.74699074 67.513808,9.35217593 L67.513808,9.35217593 Z"></path>
                            <path d="M18.842864,5.88046296 L22.147528,5.88046296 L22.147528,7.17082407 C22.754768,6.52811111 23.2932,6.08812037 23.7632,5.85085185 C24.242976,5.60371296 24.810736,5.4799537 25.466856,5.4799537 C26.338424,5.4799537 27.249096,5.76657407 28.198872,6.34019444 L26.685848,9.39507407 C26.059056,8.94027778 25.446928,8.71287963 24.84984,8.71287963 C23.048048,8.71287963 22.147152,10.0871389 22.147152,12.8356574 L22.147152,21.7896019 L18.842488,21.7896019 L18.842488,5.88046296 L18.842864,5.88046296 Z"></path>
                            <path d="M40.73208,6.0922963 L44.299568,6.0922963 L44.299568,21.6161111 L40.73208,21.6161111 L40.73208,19.990537 C39.269064,21.3720093 37.69588,22.0625556 36.012152,22.0625556 C33.886248,22.0625556 32.128824,21.2869722 30.739504,19.7354259 C29.360712,18.1523704 28.671504,16.1760185 28.671504,13.8063704 C28.671504,11.4792407 29.360712,9.54047222 30.739504,7.98892593 C32.11792,6.43775926 33.844136,5.6617963 35.9174,5.6617963 C37.706408,5.6617963 39.311552,6.40549074 40.73208,7.89325926 L40.73208,6.0922963 L40.73208,6.0922963 Z M32.055128,13.8018148 C32.055128,15.3844907 32.466848,16.6729537 33.290288,17.6675833 C34.135536,18.6736019 35.200368,19.1766111 36.48516,19.1766111 C37.85756,19.1766111 38.966008,18.6906852 39.811632,17.7184537 C40.65688,16.7124352 41.079504,15.4353611 41.079504,13.8864722 C41.079504,12.337963 40.65688,11.0608889 39.811632,10.0544907 C38.966008,9.07125 37.868464,8.57925 36.518248,8.57925 C35.244736,8.57925 34.179904,9.07656481 33.323376,10.0711944 C32.477752,11.0779722 32.055128,12.3212593 32.055128,13.8018148 L32.055128,13.8018148 Z"></path>
                        </g>
                        <g transform="translate(90.240000, 0.000000)">
                            <path d="M13.761224,3.18699074 C13.179176,2.52947222 12.482824,1.99761111 11.670664,1.5925463 C10.858504,1.18786111 9.971144,0.985138889 9.008584,0.985138889 L1.112208,0.985138889 L0.044368,0.985138889 L0.044368,22.5488611 L3.413328,22.5488611 L3.413328,15.047 L9.188688,15.047 C10.151248,15.047 11.028456,14.8495926 11.820688,14.4547778 C12.612544,14.059963 13.289344,13.5337963 13.851088,12.8755185 C14.412456,12.218 14.848616,11.4686111 15.159568,10.6281111 C15.470144,9.78799074 15.625808,8.91218519 15.625808,8.00107407 C15.625808,7.13058333 15.460368,6.27527778 15.129488,5.43477778 C14.798984,4.59427778 14.34252,3.84488889 13.761224,3.18699074 L13.761224,3.18699074 Z M11.956424,9.61032407 C11.795496,10.09625 11.57516,10.5214352 11.294664,10.8858796 C11.013792,11.2503241 10.678024,11.5339074 10.286984,11.73625 C9.895944,11.9389722 9.459784,12.0399537 8.978504,12.0399537 L3.413704,12.0399537 L3.413704,3.99180556 L8.798024,3.99180556 C9.238696,3.99180556 9.66508,4.08823148 10.076424,4.28032407 C10.487392,4.4727963 10.85324,4.74612963 11.174344,5.10032407 C11.494696,5.45489815 11.745864,5.87476852 11.926344,6.36069444 C12.106824,6.84662037 12.197064,7.39328704 12.197064,8.00069444 C12.197064,8.58836111 12.1166,9.12439815 11.956424,9.61032407 L11.956424,9.61032407 Z"></path>
                            <path d="M40.45948,6.60973148 C39.98948,6.847 39.451048,7.28699074 38.843808,7.9297037 L38.843808,6.63972222 L35.539144,6.63972222 L35.539144,22.5488611 L38.843808,22.5488611 L38.843808,13.594537 C38.843808,10.8460185 39.744704,9.47175926 41.546496,9.47175926 C42.143584,9.47175926 42.755712,9.69915741 43.382504,10.1539537 L44.895528,7.09907407 C43.945752,6.52583333 43.03508,6.23883333 42.163512,6.23883333 C41.507016,6.23921296 40.93888,6.36297222 40.45948,6.60973148 L40.45948,6.60973148 Z"></path>
                            <path d="M60.92704,6.69476852 L56.717344,6.69476852 L50.097864,13.7661296 L50.097864,13.5281019 L50.097864,0.377351852 L46.789064,0.377351852 L46.789064,22.5484815 L50.097864,22.5484815 L50.097864,17.7195926 L52.714824,15.2288426 L57.738184,22.5484815 L61.288,22.5484815 L54.85088,13.3458796 L60.92704,6.69476852 Z"></path>
                            <path d="M32.078816,10.8175463 C31.727256,10.0271574 31.266656,9.31952778 30.69288,8.69731481 C29.994648,7.94071296 29.152408,7.33444444 28.165408,6.87812963 C27.178408,6.42219444 26.076352,6.19403704 24.859992,6.19403704 C23.623328,6.19403704 22.506608,6.41687963 21.509832,6.86256481 C20.51268,7.30862963 19.659912,7.91983333 18.95228,8.69731481 C18.36196,9.34534259 17.884816,10.0810648 17.516336,10.9018241 C17.426848,11.0897407 17.341872,11.2810741 17.264792,11.4781019 C16.873752,12.4803241 16.678232,13.5387315 16.678232,14.6518056 C16.678232,15.7656389 16.873752,16.8187315 17.264792,17.8103241 C17.333224,17.9838148 17.408048,18.1519907 17.486256,18.3178889 C17.858496,19.1568704 18.346168,19.9051204 18.95228,20.5615 C19.659912,21.3287315 20.512304,21.9353796 21.509832,22.3806852 C22.506608,22.8263704 23.613552,23.049213 24.829912,23.049213 C26.485064,23.049213 27.935672,22.6604722 29.182112,21.8829907 C30.428176,21.1055093 31.3208,20.1055648 31.859232,18.8820185 L31.899088,18.7821759 L29.071568,17.9621759 C28.911016,18.3266204 28.690304,18.6606944 28.409808,18.9643981 C28.12856,19.2681019 27.808208,19.52625 27.447248,19.7388426 C27.086288,19.9514352 26.689984,20.1139167 26.259088,20.2247685 C25.827816,20.3363796 25.391656,20.3918056 24.950608,20.3918056 C24.349008,20.3918056 23.772224,20.2809537 23.221008,20.0577315 C22.669416,19.8352685 22.177984,19.5163796 21.747088,19.1010648 C21.315816,18.6865093 20.965008,18.1952685 20.694288,17.6281019 C20.423568,17.0613148 20.258128,16.423537 20.197968,15.7147685 L31.772,15.7147685 L32.801864,15.7147685 C32.821792,15.5735463 32.84172,15.3958796 32.862024,15.183287 C32.881576,14.9706944 32.892104,14.7429167 32.892104,14.4999537 C32.892104,13.4271204 32.70636,12.399463 32.335624,11.4173611 C32.257792,11.2116019 32.171312,11.0126759 32.078816,10.8175463 L32.078816,10.8175463 Z M20.135176,13.1587222 C20.209624,12.5851019 20.360776,12.0505833 20.589008,11.5540278 C20.849576,10.9872407 21.190608,10.50625 21.611728,10.1114352 C22.032848,9.71662037 22.519016,9.40798148 23.070608,9.18513889 C23.621824,8.96267593 24.208384,8.85106481 24.830288,8.85106481 C25.451816,8.85106481 26.04364,8.96267593 26.605008,9.18513889 C27.166,9.40836111 27.657808,9.71662037 28.078928,10.1114352 C28.500048,10.50625 28.845968,10.9872407 29.116688,11.5540278 C29.353568,12.0502037 29.509984,12.5851019 29.58556,13.1587222 L20.135176,13.1587222 L20.135176,13.1587222 Z"></path>
                        </g>
                    </g>
                    <g id="Shape" fill="#272E3A">
                        <path d="M22.428776,31.4238426 C20.105848,32.5050278 17.620112,33.0528333 15.040376,33.0528333 C12.457256,33.0528333 9.968512,32.5031296 7.642952,31.4196667 C6.983072,31.111787 6.201368,31.402963 5.896432,32.069213 C5.591872,32.735463 5.879888,33.524713 6.539768,33.8325926 C9.213504,35.0789167 12.073736,35.7106204 15.040376,35.7106204 C18.003256,35.7106204 20.859352,35.0804352 23.530456,33.8375278 C24.190712,33.5304074 24.479104,32.7411574 24.17492,32.0745278 C23.870736,31.4078981 23.088656,31.1167222 22.428776,31.4238426 L22.428776,31.4238426 Z"></path>
                        <path d="M25.675536,4.46406481 C19.80204,-1.46612963 10.278712,-1.46612963 4.405216,4.46406481 C-1.46828,10.3942593 -1.46828,20.0095185 4.405216,25.939713 C10.278712,31.8699074 19.80204,31.8699074 25.675536,25.939713 C31.549408,20.0095185 31.549408,10.3946389 25.675536,4.46406481 L25.675536,4.46406481 Z M23.814336,24.0609259 C18.968448,28.9535926 11.111928,28.9535926 6.266416,24.0609259 C1.420528,19.1682593 1.420528,11.2358981 6.266416,6.34361111 C11.112304,1.45094444 18.968824,1.45094444 23.814336,6.34361111 C28.660224,11.2358981 28.660224,19.1682593 23.814336,24.0609259 L23.814336,24.0609259 Z"></path>
                        <path d="M15.040376,40.9836759 C12.703536,40.9836759 10.39828,40.6298611 8.188528,39.9324815 C7.494808,39.7134352 7.10828,38.9682222 7.325232,38.2678056 C7.542184,37.5673889 8.279896,37.1775093 8.973992,37.3961759 C10.929192,38.0134537 12.970496,38.3262685 15.040376,38.3262685 C17.097848,38.3262685 19.127496,38.0168704 21.07292,37.4068056 C21.76664,37.1896574 22.504352,37.5806759 22.720176,38.2814722 C22.935624,38.9822685 22.547968,39.7267222 21.853872,39.9446296 C19.6554,40.634037 17.363304,40.9836759 15.040376,40.9836759 L15.040376,40.9836759 Z"></path>
                        <path d="M21.542544,8.63733333 L21.542544,8.63733333 L21.542544,8.63733333 C21.047352,8.13774074 18.65524,9.69839815 18.107408,10.2515185 C17.565216,10.7989444 17.167784,11.200213 16.87676,11.4940463 L7.863288,10.5958426 L6.874032,11.5946481 L13.76348,14.6373796 L13.72212,14.6791389 L13.717608,14.6836944 L13.715352,14.6859722 L13.705576,14.6958426 L13.695424,14.7060926 L13.658576,14.7432963 L13.634512,14.7675926 L13.610824,14.7915093 L13.610824,14.7915093 C13.46832,14.9353889 13.1694,15.2371944 12.58284,15.8294167 C11.718416,16.7021852 10.815264,17.9625556 10.190728,19.0084352 L7.096624,18.8470926 L6.624744,19.3235278 C6.624744,19.3235278 9.369168,20.8268611 9.419552,20.8773519 C9.46956,20.9278426 10.95852,23.6991389 10.95852,23.6991389 L11.4304,23.2227037 L11.2706,20.0991111 C12.306104,19.4689259 13.554048,18.5574352 14.419224,17.6835278 L15.447208,16.6456204 L15.563768,16.5279352 L15.599112,16.49225 L18.612752,23.4482037 L19.602008,22.4493981 L18.712392,13.3489167 C19.003792,13.0547037 19.400848,12.6538148 19.94304,12.1063889 C20.491624,11.5525093 22.03736,9.13692593 21.542544,8.63733333 L21.542544,8.63733333 L21.542544,8.63733333 Z"></path>
                    </g>
                </g>
            </g>
        </g>
    </g>
</svg>