<?xml version="1.0" encoding="UTF-8" standalone="no"?>
<svg width="188px" height="41px" viewBox="0 0 188 41" version="1.1" xmlns="http://www.w3.org/2000/svg" xmlns:xlink="http://www.w3.org/1999/xlink">
    <!-- Generator: Sketch 3.7 (28169) - http://www.bohemiancoding.com/sketch -->
    <title>travelperk-logo-dark</title>
    <desc>Created with Sketch.</desc>
    <defs></defs>
    <g id="Logos" stroke="none" stroke-width="1" fill="none" fill-rule="evenodd">
        <g id="travelperk-logo-dark" fill="#272E3A">
            <polygon id="Shape" points="36.785208 13.8621759 43.914544 13.8621759 43.914544 32.4188519 47.283504 32.4188519 47.283504 13.8621759 54.38276 13.8621759 54.38276 10.8551296 36.785208 10.8551296"></polygon>
            <polygon id="Shape" points="91.183008 29.5944074 86.700712 16.5347685 83.01328 16.5347685 89.02928 32.4188519 93.130312 32.4188519 99.146312 16.5347685 95.725088 16.5347685"></polygon>
            <path d="M117.491728,29.0477407 C117.491728,30.2018148 117.81208,31.0931852 118.454288,31.7203333 C119.0322,32.2859815 119.815784,32.5942407 120.800528,32.6500463 L120.800528,27.7418148 L120.800528,18.4545556 L120.800528,10.8551296 L117.491728,10.8551296 L117.491728,29.0477407 L117.491728,29.0477407 Z" id="Shape"></path>
            <path d="M114.709704,21.2877315 C114.631872,21.0819722 114.545016,20.8826667 114.452896,20.687537 C114.101336,19.8971481 113.640736,19.1895185 113.06696,18.5673056 C112.368728,17.8107037 111.526488,17.2044352 110.539488,16.7481204 C109.552488,16.2921852 108.450432,16.0640278 107.234072,16.0640278 C105.997408,16.0640278 104.880688,16.2868704 103.883912,16.7325556 C102.88676,17.1786204 102.033992,17.7898241 101.32636,18.5673056 C100.73604,19.2153333 100.258896,19.9510556 99.890416,20.7718148 C99.800928,20.9597315 99.715952,21.1510648 99.638872,21.3480926 C99.247832,22.3503148 99.052312,23.4087222 99.052312,24.5217963 C99.052312,25.6356296 99.247832,26.6887222 99.638872,27.6803148 C99.707304,27.8538056 99.782128,28.0219815 99.860336,28.1878796 C100.232576,29.0268611 100.720248,29.7751111 101.32636,30.4314907 C102.033992,31.1987222 102.886384,31.8053704 103.883912,32.2506759 C104.880688,32.6963611 105.987632,32.9192037 107.203992,32.9192037 C108.859144,32.9192037 110.309752,32.530463 111.556192,31.7529815 C112.802256,30.9755 113.69488,29.9755556 114.233312,28.7520093 L114.273168,28.6521667 L111.445648,27.8321667 C111.285096,28.1966111 111.064384,28.5306852 110.783888,28.8343889 C110.50264,29.1380926 110.182288,29.3962407 109.821328,29.6088333 C109.460368,29.8214259 109.064064,29.9839074 108.633168,30.0947593 C108.201896,30.2063704 107.765736,30.2617963 107.324688,30.2617963 C106.723088,30.2617963 106.146304,30.1509444 105.595088,29.9277222 C105.043496,29.7052593 104.552064,29.3863704 104.121168,28.9710556 C103.689896,28.5565 103.339088,28.0652593 103.068368,27.4980926 C102.797648,26.9313056 102.632208,26.2935278 102.572048,25.5847593 L114.14608,25.5847593 L115.175944,25.5847593 C115.195872,25.443537 115.2158,25.2658704 115.236104,25.0532778 C115.255656,24.8406852 115.266184,24.6129074 115.266184,24.3699444 C115.266184,23.2974907 115.08044,22.270213 114.709704,21.2877315 L114.709704,21.2877315 Z M103.985808,19.9818056 C104.406928,19.5869907 104.893096,19.2783519 105.444688,19.0555093 C105.995904,18.8330463 106.582464,18.7214352 107.204368,18.7214352 C107.825896,18.7214352 108.41772,18.8330463 108.979088,19.0555093 C109.54008,19.2787315 110.031888,19.5869907 110.453008,19.9818056 C110.874128,20.3766204 111.220048,20.8576111 111.490768,21.4243981 C111.727648,21.9205741 111.884064,22.4554722 111.95964,23.0290926 L102.50888,23.0290926 C102.583328,22.4554722 102.73448,21.9209537 102.962712,21.4243981 C103.22328,20.8579907 103.564688,20.3766204 103.985808,19.9818056 L103.985808,19.9818056 Z" id="Shape"></path>
            <path d="M55.314864,16.5100926 L58.619528,16.5100926 L58.619528,17.8004537 C59.226768,17.1577407 59.7652,16.71775 60.2352,16.4804815 C60.714976,16.2333426 61.282736,16.1095833 61.938856,16.1095833 C62.810424,16.1095833 63.721096,16.3962037 64.670872,16.9698241 L63.157848,20.0247037 C62.531056,19.5699074 61.918928,19.3425093 61.32184,19.3425093 C59.520048,19.3425093 58.619152,20.7167685 58.619152,23.465287 L58.619152,32.4192315 L55.314488,32.4192315 L55.314488,16.5100926 L55.314864,16.5100926 Z" id="Shape"></path>
            <path d="M77.20408,16.7219259 L80.771568,16.7219259 L80.771568,32.2457407 L77.20408,32.2457407 L77.20408,30.6201667 C75.741064,32.0016389 74.16788,32.6921852 72.484152,32.6921852 C70.358248,32.6921852 68.600824,31.9166019 67.211504,30.3650556 C65.832712,28.782 65.143504,26.8056481 65.143504,24.436 C65.143504,22.1088704 65.832712,20.1701019 67.211504,18.6185556 C68.58992,17.0673889 70.316136,16.2914259 72.3894,16.2914259 C74.178408,16.2914259 75.783552,17.0351204 77.20408,18.5228889 L77.20408,16.7219259 L77.20408,16.7219259 Z M68.527128,24.4314444 C68.527128,26.0141204 68.938848,27.3025833 69.762288,28.297213 C70.607536,29.3032315 71.672368,29.8062407 72.95716,29.8062407 C74.32956,29.8062407 75.438008,29.3203148 76.283632,28.3480833 C77.12888,27.3420648 77.551504,26.0649907 77.551504,24.5161019 C77.551504,22.9675926 77.12888,21.6905185 76.283632,20.6841204 C75.438008,19.7008796 74.340464,19.2088796 72.990248,19.2088796 C71.716736,19.2088796 70.651904,19.7061944 69.795376,20.7008241 C68.949752,21.7076019 68.527128,22.9508889 68.527128,24.4314444 L68.527128,24.4314444 Z" id="Shape"></path>
            <path d="M140.473224,13.0573611 C139.891176,12.3998426 139.194824,11.8679815 138.382664,11.4629167 C137.570504,11.0582315 136.683144,10.8555093 135.720584,10.8555093 L127.824208,10.8555093 L126.756368,10.8555093 L126.756368,32.4192315 L130.125328,32.4192315 L130.125328,24.9173704 L135.900688,24.9173704 C136.863248,24.9173704 137.740456,24.719963 138.532688,24.3251481 C139.324544,23.9303333 140.001344,23.4041667 140.563088,22.7458889 C141.124456,22.0883704 141.560616,21.3389815 141.871568,20.4984815 C142.182144,19.6583611 142.337808,18.7825556 142.337808,17.8714444 C142.337808,17.0009537 142.172368,16.1456481 141.841488,15.3051481 C141.510984,14.4646481 141.05452,13.7152593 140.473224,13.0573611 L140.473224,13.0573611 Z M138.668424,19.4806944 C138.507496,19.9666204 138.28716,20.3918056 138.006664,20.75625 C137.725792,21.1206944 137.390024,21.4042778 136.998984,21.6066204 C136.607944,21.8093426 136.171784,21.9103241 135.690504,21.9103241 L130.125704,21.9103241 L130.125704,13.8621759 L135.510024,13.8621759 C135.950696,13.8621759 136.37708,13.9586019 136.788424,14.1506944 C137.199392,14.3431667 137.56524,14.6165 137.886344,14.9706944 C138.206696,15.3252685 138.457864,15.7451389 138.638344,16.2310648 C138.818824,16.7169907 138.909064,17.2636574 138.909064,17.8710648 C138.909064,18.4587315 138.8286,18.9947685 138.668424,19.4806944 L138.668424,19.4806944 Z" id="Shape"></path>
            <path d="M167.17148,16.4801019 C166.70148,16.7173704 166.163048,17.1573611 165.555808,17.8000741 L165.555808,16.5100926 L162.251144,16.5100926 L162.251144,32.4192315 L165.555808,32.4192315 L165.555808,23.4649074 C165.555808,20.7163889 166.456704,19.3421296 168.258496,19.3421296 C168.855584,19.3421296 169.467712,19.5695278 170.094504,20.0243241 L171.607528,16.9694444 C170.657752,16.3962037 169.74708,16.1092037 168.875512,16.1092037 C168.219016,16.1095833 167.65088,16.2333426 167.17148,16.4801019 L167.17148,16.4801019 Z" id="Shape"></path>
            <polygon id="Shape" points="187.63904 16.5651389 183.429344 16.5651389 176.809864 23.6365 176.809864 23.3984722 176.809864 10.2477222 173.501064 10.2477222 173.501064 32.4188519 176.809864 32.4188519 176.809864 27.589963 179.426824 25.099213 184.450184 32.4188519 188 32.4188519 181.56288 23.21625"></polygon>
            <path d="M158.790816,20.6879167 C158.439256,19.8975278 157.978656,19.1898981 157.40488,18.5676852 C156.706648,17.8110833 155.864408,17.2048148 154.877408,16.7485 C153.890408,16.2925648 152.788352,16.0644074 151.571992,16.0644074 C150.335328,16.0644074 149.218608,16.28725 148.221832,16.7329352 C147.22468,17.179 146.371912,17.7902037 145.66428,18.5676852 C145.07396,19.215713 144.596816,19.9514352 144.228336,20.7721944 C144.138848,20.9601111 144.053872,21.1514444 143.976792,21.3484722 C143.585752,22.3506944 143.390232,23.4091019 143.390232,24.5221759 C143.390232,25.6360093 143.585752,26.6891019 143.976792,27.6806944 C144.045224,27.8541852 144.120048,28.0223611 144.198256,28.1882593 C144.570496,29.0272407 145.058168,29.7754907 145.66428,30.4318704 C146.371912,31.1991019 147.224304,31.80575 148.221832,32.2510556 C149.218608,32.6967407 150.325552,32.9195833 151.541912,32.9195833 C153.197064,32.9195833 154.647672,32.5308426 155.894112,31.7533611 C157.140176,30.9758796 158.0328,29.9759352 158.571232,28.7523889 L158.611088,28.6525463 L155.783568,27.8325463 C155.623016,28.1969907 155.402304,28.5310648 155.121808,28.8347685 C154.84056,29.1384722 154.520208,29.3966204 154.159248,29.609213 C153.798288,29.8218056 153.401984,29.984287 152.971088,30.0951389 C152.539816,30.20675 152.103656,30.2621759 151.662608,30.2621759 C151.061008,30.2621759 150.484224,30.1513241 149.933008,29.9281019 C149.381416,29.7056389 148.889984,29.38675 148.459088,28.9714352 C148.027816,28.5568796 147.677008,28.0656389 147.406288,27.4984722 C147.135568,26.9316852 146.970128,26.2939074 146.909968,25.5851389 L158.484,25.5851389 L159.513864,25.5851389 C159.533792,25.4439167 159.55372,25.26625 159.574024,25.0536574 C159.593576,24.8410648 159.604104,24.613287 159.604104,24.3703241 C159.604104,23.2974907 159.41836,22.2698333 159.047624,21.2877315 C158.969792,21.0819722 158.883312,20.8830463 158.790816,20.6879167 L158.790816,20.6879167 Z M146.847176,23.0290926 C146.921624,22.4554722 147.072776,21.9209537 147.301008,21.4243981 C147.561576,20.8576111 147.902608,20.3766204 148.323728,19.9818056 C148.744848,19.5869907 149.231016,19.2783519 149.782608,19.0555093 C150.333824,18.8330463 150.920384,18.7214352 151.542288,18.7214352 C152.163816,18.7214352 152.75564,18.8330463 153.317008,19.0555093 C153.878,19.2787315 154.369808,19.5869907 154.790928,19.9818056 C155.212048,20.3766204 155.557968,20.8576111 155.828688,21.4243981 C156.065568,21.9205741 156.221984,22.4554722 156.29756,23.0290926 L146.847176,23.0290926 L146.847176,23.0290926 Z" id="Shape"></path>
            <path d="M22.428776,31.4238426 C20.105848,32.5050278 17.620112,33.0528333 15.040376,33.0528333 C12.457256,33.0528333 9.968512,32.5031296 7.642952,31.4196667 C6.983072,31.111787 6.201368,31.402963 5.896432,32.069213 C5.591872,32.735463 5.879888,33.524713 6.539768,33.8325926 C9.213504,35.0789167 12.073736,35.7106204 15.040376,35.7106204 C18.003256,35.7106204 20.859352,35.0804352 23.530456,33.8375278 C24.190712,33.5304074 24.479104,32.7411574 24.17492,32.0745278 C23.870736,31.4078981 23.088656,31.1167222 22.428776,31.4238426 L22.428776,31.4238426 Z" id="Shape"></path>
            <path d="M25.675536,4.46406481 C19.80204,-1.46612963 10.278712,-1.46612963 4.405216,4.46406481 C-1.46828,10.3942593 -1.46828,20.0095185 4.405216,25.939713 C10.278712,31.8699074 19.80204,31.8699074 25.675536,25.939713 C31.549408,20.0095185 31.549408,10.3946389 25.675536,4.46406481 L25.675536,4.46406481 Z M23.814336,24.0609259 C18.968448,28.9535926 11.111928,28.9535926 6.266416,24.0609259 C1.420528,19.1682593 1.420528,11.2358981 6.266416,6.34361111 C11.112304,1.45094444 18.968824,1.45094444 23.814336,6.34361111 C28.660224,11.2358981 28.660224,19.1682593 23.814336,24.0609259 L23.814336,24.0609259 Z" id="Shape"></path>
            <path d="M15.040376,40.9836759 C12.703536,40.9836759 10.39828,40.6298611 8.188528,39.9324815 C7.494808,39.7134352 7.10828,38.9682222 7.325232,38.2678056 C7.542184,37.5673889 8.279896,37.1775093 8.973992,37.3961759 C10.929192,38.0134537 12.970496,38.3262685 15.040376,38.3262685 C17.097848,38.3262685 19.127496,38.0168704 21.07292,37.4068056 C21.76664,37.1896574 22.504352,37.5806759 22.720176,38.2814722 C22.935624,38.9822685 22.547968,39.7267222 21.853872,39.9446296 C19.6554,40.634037 17.363304,40.9836759 15.040376,40.9836759 L15.040376,40.9836759 Z" id="Shape"></path>
            <path d="M21.542544,8.63733333 L21.542544,8.63733333 L21.542544,8.63733333 C21.047352,8.13774074 18.65524,9.69839815 18.107408,10.2515185 C17.565216,10.7989444 17.167784,11.200213 16.87676,11.4940463 L7.863288,10.5958426 L6.874032,11.5946481 L13.76348,14.6373796 L13.72212,14.6791389 L13.717608,14.6836944 L13.715352,14.6859722 L13.705576,14.6958426 L13.695424,14.7060926 L13.658576,14.7432963 L13.634512,14.7675926 L13.610824,14.7915093 L13.610824,14.7915093 C13.46832,14.9353889 13.1694,15.2371944 12.58284,15.8294167 C11.718416,16.7021852 10.815264,17.9625556 10.190728,19.0084352 L7.096624,18.8470926 L6.624744,19.3235278 C6.624744,19.3235278 9.369168,20.8268611 9.419552,20.8773519 C9.46956,20.9278426 10.95852,23.6991389 10.95852,23.6991389 L11.4304,23.2227037 L11.2706,20.0991111 C12.306104,19.4689259 13.554048,18.5574352 14.419224,17.6835278 L15.447208,16.6456204 L15.563768,16.5279352 L15.599112,16.49225 L18.612752,23.4482037 L19.602008,22.4493981 L18.712392,13.3489167 C19.003792,13.0547037 19.400848,12.6538148 19.94304,12.1063889 C20.491624,11.5525093 22.03736,9.13692593 21.542544,8.63733333 L21.542544,8.63733333 L21.542544,8.63733333 Z" id="Shape"></path>
        </g>
    </g>
</svg>