<?xml version="1.0" encoding="UTF-8" standalone="no"?>
<svg width="100px" height="148px" viewBox="0 0 100 148" version="1.1" xmlns="http://www.w3.org/2000/svg" xmlns:xlink="http://www.w3.org/1999/xlink" xmlns:sketch="http://www.bohemiancoding.com/sketch/ns">
    <!-- Generator: Sketch 3.4.4 (17249) - http://www.bohemiancoding.com/sketch -->
    <title>get-your-guide</title>
    <desc>Created with Sketch.</desc>
    <defs>
        <path id="path-1" d="M0.0075,0 L100,0 L100,149.9925 L0.0075,149.9925"></path>
    </defs>
    <g id="Logos" stroke="none" stroke-width="1" fill="none" fill-rule="evenodd" sketch:type="MSPage">
        <g id="get-your-guide" sketch:type="MSLayerGroup">
            <g id="Group-3">
                <mask id="mask-2" sketch:name="Clip 2" fill="white">
                    <use xlink:href="#path-1"></use>
                </mask>
                <g id="Clip-2"></g>
                <path d="M0,0 L0,113.597125 L50.0515,147.5 L100,113.597125 L100,0 L0,0" id="Fill-1" fill="#DE492F" sketch:type="MSShapeGroup" mask="url(#mask-2)"></path>
            </g>
            <path d="M28.97775,92.28225 L23.378875,92.28225 L23.378875,98.920375 C22.893125,99.142625 21.82225,99.308625 21.1135,99.308625 C18.004875,99.308625 16.742875,96.588875 16.742875,92.347625 C16.742875,88.23975 18.330625,86.138625 20.854,86.138625 C22.31125,86.138625 23.57475,86.815 25.025875,88.726625 L29.075625,85.7485 C26.617875,82.222625 23.704375,81.48 20.91775,81.48 C16.25875,81.48 11.014125,84.2905 11.014125,92.670875 C11.014125,100.145 14.901375,103.7705 20.952125,103.7705 C24.21925,103.7705 27.16425,102.868625 28.97775,101.568875 L28.97775,92.28225 L28.97775,92.28225 Z M41.175,86.815 L41.175,97.4975 C41.175,98.79 40.33425,99.69725 39.199,99.69725 C37.847625,99.69725 37.67825,98.694875 37.67825,97.233375 L37.67825,86.815 L32.245625,86.815 L32.245625,97.944375 C32.245625,101.86225 34.054,103.80275 37.743875,103.80275 C39.462375,103.80275 41.012,103.159625 42.0185,101.833 L42.140375,101.833 L42.370125,103.382375 L46.938,103.382375 L46.579125,100.23925 L46.579125,86.815 L41.175,86.815 L41.175,86.815 Z M49.975125,103.382375 L55.411875,103.382375 L55.411875,86.815 L49.975125,86.815 L49.975125,103.382375 Z M49.8135,82.09325 C49.8135,83.6455 50.911875,84.78175 52.693375,84.78175 C54.409375,84.78175 55.57275,83.6455 55.57275,82.09325 C55.57275,80.6045 54.409375,79.40775 52.693375,79.40775 C50.911875,79.40775 49.8135,80.6045 49.8135,82.09325 L49.8135,82.09325 Z M65.831,86.334 C60.716125,86.334 57.70825,90.312 57.70825,95.90425 C57.70825,99.63425 58.649375,103.868625 64.0815,103.868625 C65.921875,103.868625 67.254125,103.191875 68.0945,101.833 L68.285375,101.833 L68.578625,103.382375 L73.112,103.382375 L72.7525,99.858375 L72.7525,80.8985 L67.381375,80.8985 L67.381375,86.495125 C66.997375,86.3975 66.54325,86.334 65.831,86.334 L65.831,86.334 Z M67.381375,98.24075 C67.381375,99.080625 66.60675,100.0185 65.348125,100.0185 C63.569375,100.0185 63.076875,97.981875 63.076875,95.48725 C63.076875,93.066375 63.59325,90.180625 66.1245,90.180625 C66.60675,90.180625 67.026875,90.277875 67.381375,90.410625 L67.381375,98.24075 L67.381375,98.24075 Z M83.53025,86.334 C77.993625,86.334 75.214375,90.859375 75.214375,95.55425 C75.214375,100.46875 77.442625,103.902875 83.138625,103.902875 C86.7585,103.902875 89.190875,102.21825 89.349625,102.055125 L87.92625,98.4995 C86.891375,99.17825 85.46825,99.858375 83.9145,99.858375 C81.94675,99.858375 80.84175,98.662625 80.712125,97.202125 C83.889875,97.00875 89.190875,96.077625 89.190875,91.3775 C89.190875,87.981 86.930625,86.334 83.53025,86.334 L83.53025,86.334 Z M84.4995,91.445375 C84.4995,93.024875 82.200625,93.84125 80.45825,93.934125 C80.556875,91.700625 81.615,90.11625 83.232125,90.11625 C84.0095,90.11625 84.4995,90.63525 84.4995,91.445375 L84.4995,91.445375 Z" id="Fill-4" fill="#FFFFFF" sketch:type="MSShapeGroup"></path>
            <path d="M24.629875,53.152875 L20.714875,60.9175 L20.58525,60.9175 L16.8655,53.152875 L10.745625,53.152875 L17.7065,66.4175 L17.7065,74.6665 L23.2395,74.6665 L23.2395,66.38325 L30.422625,53.152875 L24.629875,53.152875 L24.629875,53.152875 Z M35.441375,71.235375 C33.5305,71.235375 33.242375,68.683125 33.242375,65.900375 C33.242375,63.214375 33.91475,61.499 35.441375,61.499 C37.09125,61.499 37.634,63.183125 37.634,66.484375 C37.634,69.651875 37.018125,71.235375 35.441375,71.235375 L35.441375,71.235375 Z M27.735875,66.513625 C27.735875,72.403375 30.586125,75.1875 35.214375,75.1875 C39.67475,75.1875 43.23025,72.080625 43.23025,65.994625 C43.23025,58.392125 38.25,57.61225 35.65875,57.61225 C32.13725,57.61225 27.735875,59.71975 27.735875,66.513625 L27.735875,66.513625 Z M54.365,58.1035 L54.365,68.78125 C54.365,70.07175 53.525375,70.982375 52.396,70.982375 C51.036375,70.982375 50.870625,69.979 50.870625,68.5225 L50.870625,58.1035 L45.43625,58.1035 L45.43625,69.2305 C45.43625,73.1485 47.24825,75.087875 50.943875,75.087875 C52.648625,75.087875 54.203875,74.441875 55.2085,73.11675 L55.337875,73.11675 L55.56225,74.6665 L60.128625,74.6665 L59.771,71.534125 L59.771,58.1035 L54.365,58.1035 L54.365,58.1035 Z M68.607625,64.538625 C68.6355,63.05375 69.5755,62.17825 70.961,62.17825 C71.808875,62.17825 72.61375,62.373 73.2995,62.726625 L74.16575,58.2295 C73.325,57.8135 72.29325,57.61225 71.484625,57.61225 C70.089125,57.61225 68.47075,58.358875 67.601125,60.398875 L67.184875,58.1035 L62.777625,58.1035 L63.19725,61.273875 L63.19725,74.6665 L68.607625,74.6665 L68.607625,64.538625 L68.607625,64.538625 Z" id="Fill-5" fill="#FFFFFF" sketch:type="MSShapeGroup"></path>
            <path d="M28.97775,35.568875 L23.378875,35.568875 L23.378875,42.19725 C22.893125,42.42925 21.82225,42.588375 21.1135,42.588375 C18.004875,42.588375 16.742875,39.869625 16.742875,35.630375 C16.742875,31.5215 18.330625,29.422375 20.854,29.422375 C22.31125,29.422375 23.57475,30.097125 25.025875,32.00875 L29.075625,29.034625 C26.617875,25.505875 23.704375,24.76075 20.91775,24.76075 C16.25875,24.76075 11.014125,27.57525 11.014125,35.9575 C11.014125,43.423875 14.901375,47.05275 20.952125,47.05275 C24.21925,47.05275 27.16425,46.150875 28.97775,44.8555 L28.97775,35.568875 L28.97775,35.568875 Z M39.7505,29.61275 C34.21675,29.61275 31.431875,34.1455 31.431875,38.834 C31.431875,43.754375 33.66725,47.184125 39.361875,47.184125 C42.983625,47.184125 45.410375,45.501 45.57475,45.339375 L44.15425,41.77875 C43.116,42.4575 41.691375,43.143125 40.1365,43.143125 C38.16725,43.143125 37.06225,41.943375 36.93525,40.486875 C40.106875,40.2905 45.410375,39.357375 45.410375,34.661625 C45.410375,31.263125 43.14825,29.61275 39.7505,29.61275 L39.7505,29.61275 Z M40.723375,34.7285 C40.723375,36.312 38.422625,37.121125 36.677,37.215375 C36.771,34.982375 37.847625,33.398875 39.462375,33.398875 C40.22925,33.398875 40.723375,33.9145 40.723375,34.7285 L40.723375,34.7285 Z M47.449,24.17825 L47.449,40.745125 C47.449,43.9805 47.67575,47.184125 53.182625,47.184125 C54.99125,47.184125 56.767125,46.63525 57.774625,45.98775 L56.608625,42.588375 C56.056375,42.879375 55.47675,43.1055 54.86275,43.1055 C53.764375,43.1055 52.91775,42.65675 52.91775,40.874 L52.91775,34.337875 L56.963625,34.337875 L56.963625,30.097125 L52.91775,30.097125 L52.91775,24.17825 L47.449,24.17825 L47.449,24.17825 Z" id="Fill-6" fill="#FFFFFF" sketch:type="MSShapeGroup"></path>
        </g>
    </g>
</svg>