<?xml version="1.0" encoding="UTF-8" standalone="no"?>
<svg width="146px" height="180px" viewBox="0 0 146 180" version="1.1" xmlns="http://www.w3.org/2000/svg" xmlns:xlink="http://www.w3.org/1999/xlink">
    <!-- Generator: Sketch 3.8.3 (29802) - http://www.bohemiancoding.com/sketch -->
    <title>logo-eyeclick</title>
    <desc>Created with Sketch.</desc>
    <defs></defs>
    <g id="Customers" stroke="none" stroke-width="1" fill="none" fill-rule="evenodd">
        <g id="logo-eyeclick">
            <path d="M94.041638,89 C118.342167,89 142.041638,69.0766714 142.041638,44.5 C142.041638,19.9233286 122.342167,0 98.041638,0 C73.741109,0 47,21.7728541 47,46.3495255 C47,70.9261968 69.741109,89 94.041638,89 Z" id="Oval-2" fill="#EB0105"></path>
            <circle id="Oval-5" fill="#FFFFFF" cx="112.5" cy="28.5" r="10.5"></circle>
            <path d="M107.202966,179.025175 C124.014794,179.025175 145.233839,171.084658 145.233839,146.507986 C145.233839,121.931315 119.671566,97 95.3710365,97 C71.0705075,97 58,106.994727 58,131.571398 C58,156.148069 90.3911371,179.025175 107.202966,179.025175 Z" id="Oval-2-Copy" fill="#03A632"></path>
            <path d="M14.2331762,116.236195 C20.6612921,122.558359 31.3990274,125.627975 37.232532,125.627975 C51.8680779,125.627975 56.9513812,108.631819 56.9513812,93.996273 C56.9513812,79.3607272 39.8357331,56 25.2001872,56 C10.5646413,56 1.75898511e-09,67.3709259 -2.77555756e-17,82.4569111 C-1.05788042e-09,91.5298535 4.53393962,106.696826 14.2331762,116.236195 Z" id="Oval-4" fill="#005EB3"></path>
        </g>
    </g>
</svg>